<?xml version="1.0" encoding="utf-8"?>
<!-- Generator: Adobe Illustrator 18.1.1, SVG Export Plug-In . SVG Version: 6.00 Build 0)  -->
<svg version="1.1" id="Layer_1" xmlns="http://www.w3.org/2000/svg" xmlns:xlink="http://www.w3.org/1999/xlink" x="0px" y="0px"
	 viewBox="0 0 46 21.2" enable-background="new 0 0 46 21.2" xml:space="preserve">
<g>
	<path fill="#010101" d="M26.2,21.2c-0.1-0.2-0.3-0.3-0.4-0.4c-0.1-0.1-0.2-0.2-0.2-0.2c-0.1-0.1-0.1-0.1-0.2-0.2
		c0-0.1-0.1-0.2-0.1-0.4c0-0.1,0.1-0.4,0.2-0.8c0.1-0.4,0.2-0.6,0.2-0.8c0-0.1-0.1-0.2-0.2-0.2c-0.1,0-0.2-0.1-0.2-0.2
		c-0.1-0.1-0.3-0.4-0.5-0.7c-0.2-0.3-0.4-0.5-0.6-0.5c-0.1,0.1-0.2,0.2-0.2,0.3c0,0.1,0,0.3,0,0.4c0,0.2,0,0.3,0,0.5
		c0,0.2-0.1,0.3-0.1,0.5c-0.1-0.1-0.2-0.3-0.2-0.6c0-0.2,0-0.4,0-0.6c0,0,0-0.1-0.1-0.2c-0.1-0.1-0.1-0.2-0.1-0.3c0-0.1,0-0.2,0-0.2
		c0,0,0,0,0-0.2c0-0.1,0-0.2-0.1-0.3c-0.1-0.1-0.1-0.2-0.2-0.2C23,16,22.5,15.9,22,15.7c-0.6-0.1-1.1-0.3-1.8-0.5
		c-0.6-0.2-1.3-0.4-2-0.6c-0.7-0.2-1.3-0.5-1.9-0.8c-0.3-0.1-0.7-0.3-1.2-0.6c-0.5-0.2-0.9-0.3-1.3-0.3c-0.1,0-0.1,0.1-0.2,0.2
		c0,0.1-0.1,0.2-0.2,0.2c0,0-0.2-0.1-0.4-0.2c-0.2-0.1-0.5-0.2-0.8-0.3c-0.3-0.1-0.7-0.3-1-0.4s-0.6-0.2-0.9-0.3
		c-0.6-0.1-1.2-0.2-1.8,0c-0.6,0.1-1.2,0.1-1.8,0c-0.1,0-0.3-0.1-0.6-0.2c-0.3-0.1-0.5-0.2-0.6-0.3c-0.1-0.1-0.2-0.2-0.4-0.4
		c-0.1-0.2-0.2-0.3-0.4-0.4C4,10.4,3.2,10,2.4,9.7C1.6,9.4,0.8,9,0,8.6l0-0.3c0-0.1,0-0.2,0.1-0.2c0,0,0.1-0.1,0.1-0.1
		c0.2-0.2,0.4-0.4,0.6-0.6C1,7.2,1.2,7,1.4,6.9c0.1-0.1,0.2-0.1,0.4-0.2c0.1-0.1,0.3-0.1,0.4-0.2c0,0,0.1,0,0.2-0.1
		c0.1-0.1,0.1-0.1,0.2-0.2C2.7,6.3,2.8,6.2,3,6.2c0.2-0.1,0.3-0.1,0.5-0.1C3.8,6,4.2,6,4.7,6C5.2,6,5.6,6,6,5.9
		c0.4-0.1,0.8-0.2,1.2-0.3C7.6,5.5,8,5.4,8.4,5.4c0.3-0.1,0.7-0.1,1.2,0c0.5,0.1,1,0.1,1.4,0c0.1,0,0.2,0,0.4-0.1
		c0.2-0.1,0.3-0.1,0.5-0.2C12.1,5.1,12.3,5,12.5,5c0.2-0.1,0.2-0.1,0.3-0.1h2.1c0.3,0,0.6,0,0.9,0c0.3,0,0.7,0,1,0
		c0.1,0,0.3-0.1,0.4-0.1c0.2,0,0.3-0.1,0.5-0.1c0.3-0.1,0.5-0.1,0.8-0.1c0.3,0,0.5-0.1,0.8-0.1c0.1,0,0.2-0.1,0.4-0.1
		c0.1,0,0.3-0.1,0.4-0.2c0.2-0.1,0.4-0.2,0.7-0.5c0.2-0.2,0.5-0.5,0.6-0.8c0.1-0.2,0.2-0.5,0.4-0.7c0.1-0.1,0.1-0.3,0.2-0.4
		c0.1-0.1,0.1-0.2,0.2-0.3c0,0,0.1,0,0.2,0C22.5,1.2,22.7,1,23,0.8c0.3-0.2,0.5-0.3,0.7-0.3c0.2,0.2,0.4,0.3,0.7,0.1
		C24.8,0.5,25,0.3,25.3,0l0.2,0c0,0.2-0.2,0.4-0.3,0.6c-0.2,0.2-0.4,0.3-0.6,0.4c-0.2,0.1-0.5,0.3-0.7,0.4c-0.2,0.1-0.4,0.3-0.6,0.4
		C23.2,2,23,2.3,22.8,2.5c-0.2,0.3-0.4,0.5-0.6,0.8c0.3,0.1,0.5,0.1,0.8,0.2c0.3,0,0.5,0.1,0.6,0.1c0,0,0.2-0.1,0.4-0.2
		c0.2-0.1,0.4-0.2,0.6-0.4c0.2-0.1,0.4-0.3,0.6-0.4c0.2-0.1,0.3-0.2,0.4-0.2c0.1,0,0.2,0,0.3,0.1c0.1,0.1,0.2,0.1,0.2,0.1
		c0.2,0,0.4,0,0.6,0c0.2,0,0.4,0,0.6-0.1c0.1,0.1,0.1,0.1,0.1,0.2c0,0.1,0.1,0.2,0.1,0.3c0.1,0.1,0.2,0.1,0.3,0c0.1,0,0.2,0,0.4,0
		v0.3c-0.1,0-0.2,0-0.4,0c-0.1,0-0.3,0-0.4,0c-0.1-0.1-0.2-0.3-0.2-0.5c0-0.2-0.1-0.2-0.3-0.2c0,0-0.1,0-0.3,0
		c-0.2,0-0.3,0.1-0.5,0.1C25.9,3,25.6,3,25.4,3.1c-0.2,0.1-0.4,0.2-0.6,0.2c0,0-0.1,0.1-0.1,0.2c0,0.1-0.1,0.2-0.2,0.2
		c-0.1,0.1-0.2,0.1-0.3,0.1c-0.1,0-0.2,0.1-0.3,0.1c0,0.1,0.1,0.2,0.2,0.3c0.1,0,0.2,0.1,0.3,0.2c0.4,0.1,0.8,0,1.1,0l0,0
		c0,0.1,0.1,0.1,0.1,0.2c0,0.2-0.1,0.4-0.3,0.5c-0.1,0.1-0.2,0.1-0.3,0.1c-0.2,0-0.4,0-0.5-0.1s-0.2-0.2-0.3-0.3
		c-0.1-0.1-0.2-0.2-0.3-0.3c-0.1-0.1-0.2-0.1-0.4-0.1c-0.1,0-0.2,0.1-0.4,0.2c-0.2,0.1-0.4,0.2-0.6,0.3c0,0.1-0.1,0.1-0.1,0.1
		c0,0,0,0.1-0.1,0.1l0.2,0.3c0,0.1-0.1,0.1-0.2,0.2c-0.1,0-0.2,0.1-0.4,0.2c0,0,0.1,0.1,0.1,0.1c0.1,0,0.1,0.1,0.2,0.1
		C22.2,6,22,6.1,21.8,6c-0.2,0-0.3,0-0.5,0c-0.4,0.1-0.7,0.3-1.1,0.4c-0.4,0.2-0.7,0.3-1.1,0.4c-0.1,0.1-0.3,0.1-0.7,0.1
		c-0.3,0-0.6,0-1,0.1c-0.7,0.3-1.4,0.5-2,0.8c-0.7,0.2-1.4,0.5-2,0.7c-0.1,0.1-0.3,0.1-0.5,0c-0.2,0-0.5,0-0.7,0
		c-0.1,0-0.2,0.1-0.3,0.2c-0.1,0.1-0.3,0.2-0.4,0.2C11.1,9,10.7,9,10.3,9.1C9.8,9.2,9.4,9.3,8.9,9.4c0.2,0.1,0.5,0.1,0.7,0.1
		c0.3,0,0.5,0,0.8,0.1c0.1,0,0.2,0,0.3,0.1c0.1,0.1,0.2,0.1,0.4,0.2c0.2,0.1,0.5,0.1,0.8,0.2c0.3,0.1,0.6,0.2,0.9,0.2
		c0.3,0.1,0.5,0.1,0.7,0.2c0.2,0.1,0.3,0.1,0.4,0.1h3c0.2,0,0.4,0,0.5,0c0.2,0,0.4,0,0.7,0.1c0.2,0.1,0.4,0.1,0.7,0.2
		c0.2,0.1,0.5,0.2,0.8,0.2c0.1,0.1,0.2,0.1,0.4,0.1c0.1,0,0.3,0,0.4,0.1c0.4,0.2,0.7,0.5,1,0.8c0.3,0.3,0.7,0.7,1,1
		c0.3,0.3,0.6,0.7,0.9,1c0.3,0.3,0.6,0.6,0.8,0.7c0.2,0.1,0.5,0.2,0.8,0.2c0.4,0,0.8,0,1.2-0.1c0,0,0.1,0,0.1,0c0,0,0.1,0.1,0.1,0.2
		c-0.2,0.1-0.4,0.2-0.7,0.3c-0.2,0.1-0.5,0.2-0.7,0.3c0.1,0.2,0.2,0.4,0.3,0.6c0.1,0.2,0.1,0.4,0.2,0.7c0,0.1,0.2,0.3,0.4,0.6
		c0.2,0.3,0.3,0.6,0.3,1c0,0.1-0.1,0.3-0.2,0.6c-0.1,0.3-0.2,0.5-0.2,0.6c0,0.2,0.1,0.4,0.3,0.6c0.2,0.2,0.3,0.3,0.4,0.4L26.2,21.2z
		 M24.8,3.2l0.3-0.1L25,3l-0.2,0.1V3.2z M23.2,1.5c0.3-0.1,0.6-0.2,0.9-0.4c-0.1,0.1-0.3,0.1-0.5,0.2C23.5,1.3,23.4,1.4,23.2,1.5z
		 M23.8,17H24v-0.5h-0.1V17z M23.2,15.2c-0.3-0.2-0.5-0.4-0.8-0.6c-0.2-0.2-0.5-0.4-0.7-0.6c-0.1-0.1-0.2-0.1-0.2-0.2
		c-0.1-0.1-0.1-0.2-0.2-0.2c0.1,0.2,0.2,0.4,0.3,0.6c0.1,0.2,0.3,0.4,0.4,0.6c0.2,0.2,0.3,0.3,0.5,0.4C22.8,15.2,23,15.2,23.2,15.2z
		 M22.2,4.6c0.1-0.1,0.2-0.2,0.4-0.2c0.1-0.1,0.2-0.1,0.4-0.2h-0.2c-0.1,0-0.2,0-0.2,0.2C22.4,4.5,22.3,4.6,22.2,4.6z M21.5,4.3
		c0.1-0.1,0.2-0.1,0.3-0.1c0.1,0,0.2,0,0.2,0c0.1-0.1,0.3-0.2,0.5-0.3c0.2-0.1,0.3-0.2,0.5-0.3c-0.2,0.1-0.5,0.1-0.8,0.1
		c-0.3,0-0.6,0.2-0.8,0.5c0,0,0,0,0.1,0C21.4,4.2,21.4,4.2,21.5,4.3C21.4,4.3,21.5,4.3,21.5,4.3z M22.5,2.1l0.4-0.3l-0.1-0.1
		L22.5,2.1L22.5,2.1z M22.6,14.3c0-0.1,0.1-0.2,0.2-0.2c-0.3-0.3-0.6-0.6-0.9-1c-0.3-0.3-0.6-0.6-0.9-0.9c-0.3-0.3-0.6-0.5-1-0.6
		c-0.3-0.1-0.6-0.2-1-0.1c0.4,0,0.7,0.2,1,0.4c0.3,0.2,0.6,0.5,0.9,0.7c0.3,0.3,0.5,0.6,0.8,0.8C22,13.8,22.3,14.1,22.6,14.3z
		 M22.3,15.5c-0.3-0.1-0.6-0.3-0.9-0.4c-0.4-0.1-0.6-0.2-0.7-0.2h-0.2c0.3,0.1,0.6,0.3,0.9,0.4C21.7,15.4,22,15.5,22.3,15.5z
		 M21.6,3c0.1-0.1,0.2-0.2,0.4-0.3c0.1-0.1,0.2-0.3,0.3-0.4c-0.1,0.1-0.3,0.3-0.4,0.4C21.7,2.7,21.6,2.8,21.6,3z M21.7,14.6
		c-0.3-0.4-0.8-0.8-1.6-1c-0.7-0.3-1.5-0.5-2.3-0.7c-0.4-0.1-0.9-0.3-1.3-0.5c-0.4-0.2-0.8-0.4-1.2-0.5c-0.5-0.1-1-0.2-1.7-0.3
		c-0.6-0.1-1.2-0.2-1.6-0.3c0.5,0.2,0.9,0.4,1.4,0.6c0.4,0.2,0.8,0.4,1.1,0.5c0.4,0.1,0.8,0.2,1.3,0.3c0.5,0,0.9,0.1,1.3,0.3
		c0.1,0.1,0.3,0.1,0.5,0.3c0.2,0.1,0.3,0.2,0.5,0.4c0.2,0.1,0.3,0.2,0.5,0.3c0.1,0.1,0.2,0.2,0.3,0.2c0.2,0.1,0.4,0.1,0.7,0
		c0.2-0.1,0.5-0.1,0.7-0.1c0.2,0.1,0.4,0.1,0.7,0.2C21.2,14.4,21.5,14.5,21.7,14.6z M19,6.5c0,0,0.2,0,0.4-0.1
		c0.2-0.1,0.4-0.1,0.7-0.2c0.2-0.1,0.5-0.2,0.8-0.3c0.3-0.1,0.5-0.2,0.7-0.2c-0.3,0.1-0.6,0.1-0.9,0.1c-0.3,0-0.6,0-0.8,0
		c-0.3,0-0.6-0.1-1-0.1c-0.4,0-0.7-0.1-1.1-0.2c-0.3-0.1-0.6-0.1-0.9-0.2c-0.3,0-0.4-0.1-0.4-0.1c-0.3,0-0.6,0-0.8,0
		c-0.2,0-0.3,0.1-0.5,0.1c-0.1,0.1-0.3,0.1-0.4,0.2c-0.1,0.1-0.3,0.1-0.6,0.2C14.5,5.9,15,5.9,15.5,6c0.5,0.1,1,0.2,1.5,0.2
		c0.5,0.1,0.9,0.1,1.3,0.2C18.6,6.4,18.8,6.5,19,6.5z M21.2,13.4c-0.2-0.3-0.4-0.6-0.8-0.8c-0.3-0.2-0.7-0.4-1-0.5
		c-0.4-0.1-0.7-0.2-1.1-0.3c-0.4-0.1-0.7-0.1-0.9-0.1c-0.1,0-0.3,0-0.6,0c-0.3,0-0.5,0-0.7,0.1c0.4,0.2,0.8,0.4,1.3,0.6
		c0.4,0.2,0.8,0.3,1.2,0.4c0.2,0.1,0.4,0.1,0.7,0.1c0.2,0,0.5,0,0.7,0c0.2,0,0.5,0.1,0.7,0.1C20.8,13,21,13.2,21.2,13.4z M21.1,13.8
		l0-0.1l-0.5-0.3l0,0.1L21.1,13.8z M19.9,4.6h0.2c0,0,0.2-0.1,0.4-0.2c0.2-0.1,0.4-0.3,0.3-0.5c-0.2,0.1-0.3,0.3-0.5,0.4
		C20.2,4.5,20,4.6,19.9,4.6z M20,14.8c0.1,0,0.2,0,0.4-0.1c0.1-0.1,0.3-0.1,0.4-0.1c-0.1-0.1-0.2-0.1-0.4-0.2
		c-0.1,0-0.2-0.1-0.3-0.1c-0.1,0-0.2,0-0.3,0.1c-0.1,0.1-0.2,0.1-0.4,0.1c0.1,0.1,0.2,0.1,0.3,0.2C19.9,14.8,19.9,14.8,20,14.8z
		 M18.1,5.2c0.1,0,0.3,0,0.6-0.1c0.3-0.1,0.5-0.2,0.8-0.3c-0.4,0.1-0.8,0.1-1.1,0.1c-0.3,0-0.5,0.1-0.8,0.1c0.1,0,0.2,0,0.2,0.1
		C18,5.1,18.1,5.2,18.1,5.2z M15.1,11.4l3.6-0.2c-0.4-0.2-0.8-0.4-1.3-0.4c-0.4,0-0.9,0-1.2,0c-0.3,0-0.6,0-0.9,0
		c-0.4,0-0.7,0-0.9,0c-0.3,0-0.7,0-1-0.1c-0.3-0.1-0.6-0.2-0.9-0.2c-0.7-0.1-1.4-0.3-2-0.5C9.8,9.8,9.1,9.8,8.3,9.9
		c0.3,0.1,0.5,0.2,0.8,0.3c0.2,0.1,0.5,0.2,0.6,0.2c0.9,0.2,1.8,0.4,2.8,0.7C13.4,11.3,14.3,11.4,15.1,11.4z M14.3,6.8h2.5V6.7h-2.5
		V6.8z M12.6,7.7c0.5,0,1.1,0,1.8-0.1c0.7,0,1.4-0.2,2.1-0.5c-0.1,0-0.3,0-0.5,0c-0.2,0-0.3-0.1-0.5-0.1C15.1,7,14.7,7,14.3,7
		c-0.4,0-0.8-0.1-1.2-0.2c-0.4-0.1-0.7-0.1-1.1,0c-0.4,0.1-0.8,0.1-1,0c-0.2,0-0.4-0.1-0.6-0.1c-0.2-0.1-0.4-0.1-0.6-0.2
		C9.5,6.4,9.3,6.4,9.1,6.3C9,6.3,8.9,6.3,8.9,6.3H7.1c0.4,0.1,0.7,0.3,1.1,0.4c0.4,0.1,0.7,0.2,1,0.3C9.3,7,9.5,7.1,9.7,7.3
		c0.2,0.2,0.4,0.3,0.5,0.3c0.2,0,0.4,0.1,0.6,0.1c0.3,0,0.5,0,0.8,0c0.2,0,0.5,0,0.7,0C12.4,7.7,12.6,7.7,12.6,7.7z M13.7,6.5h2.1
		c-0.3-0.1-0.6-0.1-0.9-0.2c-0.4-0.1-0.7-0.1-1-0.2C13.5,6.1,13.3,6,13,6c-0.2,0-0.4,0-0.4,0c-0.1,0-0.3,0-0.5,0.1
		c-0.3,0-0.5,0.1-0.7,0.1c0.2,0,0.4,0.1,0.7,0.1c0.3,0.1,0.5,0.1,0.8,0.1c0.2,0,0.5,0.1,0.7,0.1C13.6,6.4,13.7,6.5,13.7,6.5z
		 M13.7,5.6c0.1-0.1,0.3-0.1,0.5-0.2c0.2,0,0.3-0.1,0.5-0.2c-0.1-0.1-0.3-0.1-0.5-0.1c-0.2,0-0.3,0-0.4,0c-0.1,0-0.3,0-0.7,0.1
		c-0.4,0.1-0.7,0.1-1,0.2L13.7,5.6z M13.6,12.5v-0.1L13,12l0,0.1L13.6,12.5z M13.1,12.8h0.4v-0.2h-0.4V12.8z M12.7,12.2
		c-0.1,0-0.2,0-0.3-0.1c-0.4-0.3-0.8-0.5-1.2-0.6c-0.4-0.1-0.8-0.2-1.3-0.3c-0.4-0.1-0.8-0.1-1.2-0.1c-0.4,0-0.8-0.1-1.1-0.2
		c-0.5-0.1-1.1-0.3-1.7-0.5C5.2,10.2,4.6,10,4.1,9.8c1.1,0.5,2.2,0.9,3.4,1.3c1.2,0.3,2.4,0.5,3.6,0.5c0,0,0,0.1,0,0.1
		c0,0,0,0,0,0.1c0,0,0,0,0,0c-0.2,0.1-0.3,0.2-0.4,0.2c0.3,0.1,0.7,0.2,1.1,0.2C12.2,12.2,12.5,12.2,12.7,12.2z M11.5,6.6
		c0.1,0,0.2,0,0.3-0.1c0.1,0,0.2-0.1,0.4-0.1c-0.3,0-0.6,0-1-0.1c-0.4-0.1-0.6-0.2-0.7-0.3c0.1-0.1,0.2-0.2,0.2-0.2
		c0.1,0,0.2-0.1,0.2-0.1c0,0-0.1,0-0.1,0c0,0-0.1-0.1-0.3-0.1c-0.2,0-0.4,0-0.7,0c-0.3,0-0.7,0-1.2,0C8.4,5.7,8.1,5.7,7.8,5.8
		C7.4,5.9,7.2,6,7.1,6h2.1c0.2,0,0.5,0.1,1,0.3C10.5,6.5,11,6.6,11.5,6.6z M12,11.4v-0.2l-0.6-0.1v0.2L12,11.4z M11.4,11.1
		c-0.3-0.1-0.6-0.2-0.9-0.2c-0.3-0.1-0.6-0.1-0.8-0.2c-0.6-0.2-1.1-0.4-1.7-0.6C7.4,9.9,6.8,9.7,6.3,9.6c-0.1-0.1-0.2-0.1-0.4,0
		c-0.1,0-0.3,0-0.4,0c0,0-0.1-0.1-0.1-0.1c0,0,0,0-0.1,0c0,0.1,0,0.2-0.1,0.2c0,0-0.1,0-0.1,0c0,0-0.1,0-0.1,0
		c0.4,0.2,0.9,0.4,1.4,0.5c0.5,0.2,1,0.3,1.6,0.4c0.6,0.1,1.1,0.2,1.7,0.3C10.3,11,10.8,11.1,11.4,11.1z M10.2,8.4
		c0.1,0,0.2,0,0.4-0.1c0.2,0,0.4-0.1,0.5-0.1c-0.2-0.1-0.4-0.2-0.6-0.3C10.2,7.9,10,7.9,9.8,7.9c-0.1,0-0.1,0-0.2,0c0,0-0.1,0-0.1,0
		C9.5,7.8,9.4,7.7,9.4,7.7c0-0.1,0-0.2-0.1-0.2C8.8,7.2,8.2,7.1,7.6,6.9C6.9,6.7,6.4,6.6,5.9,6.5c0.6,0.5,1.2,1,1.9,1.4
		C8.6,8.2,9.4,8.4,10.2,8.4z M9.6,9c0.1,0,0.2,0,0.3-0.1c0.1,0,0.2-0.1,0.4-0.1C9.8,8.7,9.3,8.6,8.7,8.5c-0.6,0-1.1-0.3-1.5-0.7
		C6.8,7.6,6.4,7.3,6.1,7c-0.3-0.2-0.6-0.4-1-0.4c0,0.1,0.1,0.2,0.1,0.3c0,0.1,0,0.2-0.1,0.2c0.1,0,0.3,0.1,0.7,0.3
		c0.4,0.2,0.8,0.4,1.3,0.6c0.5,0.2,1,0.4,1.4,0.6C9,8.9,9.3,9,9.6,9z M7.7,11.9c0.1,0,0.3,0,0.5-0.1c0.2,0,0.4-0.1,0.6-0.2
		c-0.1,0-0.3,0-0.5,0c-0.2,0-0.3-0.1-0.5-0.1c-0.4-0.1-0.8-0.3-1.3-0.4c-0.5-0.2-1-0.3-1.4-0.5c0.1,0.2,0.2,0.3,0.4,0.5
		c0.2,0.2,0.4,0.3,0.7,0.4c0.3,0.1,0.5,0.2,0.8,0.3C7.3,11.8,7.5,11.9,7.7,11.9z M6.3,9.2C5.9,8.9,5.5,8.7,5.1,8.5
		C4.7,8.2,4.3,8,3.8,7.9C3.5,7.7,3.2,7.6,2.8,7.6C2.3,7.5,2,7.5,1.6,7.4V7.4c0-0.1,0.1-0.1,0.2-0.1c0.1,0,0.2,0,0.3,0
		c0.7,0,1.3,0.1,1.6,0.2c0.3,0.1,0.7,0.3,1,0.5C5,8.2,5.4,8.4,5.9,8.5C6.4,8.7,7.1,8.9,8.1,9C7.9,8.9,7.7,8.7,7.4,8.6
		C7.2,8.5,7,8.3,6.7,8.2C6.5,8.1,6.3,8,6.1,7.9c-0.2,0-0.4-0.1-0.6-0.2C5,7.5,4.7,7.3,4.3,7.1C3.9,7,3.6,6.9,3.2,6.9
		c-0.1,0-0.4,0-0.7,0.1C2.3,7,2,7.1,1.7,7.2C1.4,7.3,1.1,7.5,0.8,7.7C0.6,7.8,0.5,8,0.5,8.3C0.6,8.4,0.8,8.4,1,8.5s0.3,0.1,0.5,0.2
		l1.9-0.1C3.2,8.4,3.2,8.4,3.1,8.3c0,0-0.1,0-0.1,0.2C2.7,8.4,2.4,8.4,2.1,8.3C1.8,8.2,1.5,8.2,1.2,8.1C1.2,8.1,1.1,8,1.1,8
		c0.1-0.1,0.3-0.2,0.4-0.2c0.3,0,0.5,0,0.9,0.1C2.7,7.9,3,8,3.4,8.1c0.3,0.1,0.6,0.2,0.8,0.3c0.3,0.1,0.5,0.2,0.6,0.2
		C4.9,8.7,5,8.7,5,8.8C5,8.9,5.1,9,5.1,9.1c0.1,0.1,0.3,0.1,0.5,0.1C5.9,9.2,6.1,9.2,6.3,9.2z M6.1,6.2h0.3V6.1H6.1V6.2z M4.3,9.3
		C4.1,9.2,3.9,9.1,3.6,9C3.3,8.9,3.1,8.9,3,8.9c-0.1,0-0.3,0-0.4,0.1c0.3,0.1,0.6,0.2,0.9,0.2C3.8,9.2,4,9.3,4.3,9.3z M3.8,10
		c0-0.1-0.1-0.2-0.2-0.3C3.6,9.6,3.5,9.5,3.5,9.5C3.1,9.4,2.7,9.3,2.4,9.2C2.1,9.2,1.8,9.1,1.5,9c0.4,0.2,0.8,0.4,1.2,0.5
		C3.1,9.7,3.5,9.8,3.8,10z"/>
	<path fill="#010101" d="M46,2.1c-0.2,0.1-0.3,0.3-0.5,0.4c-0.2,0.1-0.4,0.2-0.6,0.4c0,0.1,0.1,0.2,0.2,0.2c0.1,0.1,0.2,0.2,0.3,0.3
		c0,0-0.1,0-0.2,0.1c-0.1,0-0.1,0-0.1,0c-0.2-0.1-0.3-0.2-0.6-0.2c0,0-0.1,0-0.3,0.1c-0.1,0-0.3,0.1-0.4,0.2
		c-0.2,0.1-0.3,0.1-0.5,0.2c-0.2,0.1-0.3,0.2-0.5,0.2c-0.1,0.1-0.2,0.2-0.4,0.4c-0.1,0.2-0.3,0.4-0.4,0.5C42,5,41.8,5,41.7,4.9
		c-0.2-0.1-0.3-0.2-0.3-0.2c-0.2,0-0.3,0.2-0.3,0.5C41,5.4,41,5.7,40.9,6c0.4-0.3,0.7-0.5,0.9-0.6c0.2-0.1,0.4-0.2,0.7-0.2
		c0.1,0,0.2,0,0.4,0c0.2,0,0.3,0.1,0.3,0.3v0.3C43,5.9,42.9,6,42.7,6c-0.2,0-0.4,0.1-0.6,0.2c0.1,0.1,0.2,0.2,0.4,0.2
		c0.2,0.1,0.3,0.1,0.5,0.2c0.2,0,0.4,0.1,0.6,0.2C43.8,6.8,44,6.9,44.1,7c0,0,0,0.1,0,0.1c0,0,0,0.1,0,0.1C43.9,7.1,43.7,7,43.5,7
		c-0.2-0.1-0.4-0.2-0.6-0.3c-0.1,0.1-0.1,0.2-0.1,0.3c-0.2-0.1-0.4-0.2-0.6-0.3c-0.2-0.1-0.4-0.2-0.5-0.2c-0.2,0-0.4,0-0.6,0.1
		c0.2,0.1,0.4,0.3,0.6,0.4c0.2,0.1,0.4,0.3,0.6,0.5c0,0,0,0.1,0,0.1c0,0,0,0.1,0,0.1s0,0,0,0.1c-0.2-0.2-0.4-0.3-0.7-0.4
		c-0.2-0.1-0.4-0.1-0.7-0.1c-0.2,0-0.4,0-0.5,0c-0.1,0-0.2,0.1-0.4,0.2c-0.2,0.1-0.3,0.3-0.4,0.3v0l0,0c0.4,0.2,0.8,0.4,1.2,0.7
		c0.4,0.3,0.8,0.6,1.2,0.8c0.1,0.1,0.1,0.1,0.2,0.1c0.1,0,0.2,0,0.3,0c0.1,0,0.3,0,0.7-0.1c0.4-0.1,0.8-0.2,1.1-0.2
		c-0.1,0.3-0.2,0.5-0.4,0.6c-0.2,0.1-0.3,0.3-0.6,0.3C43.1,10,42.9,10,42.8,10c-0.1,0-0.2,0-0.2-0.1c-0.1-0.1-0.1-0.2-0.2-0.2
		c-0.1-0.1-0.2-0.1-0.4,0c-0.2,0.1-0.3,0.1-0.5,0.1c-0.1,0-0.2,0-0.3-0.1c-0.1-0.1-0.2-0.1-0.3-0.1c-0.6,0-1.1-0.1-1.3-0.1
		c-0.3,0-0.4,0-0.5,0c0,0-0.1,0-0.2,0.1c-0.1,0.1-0.3,0.1-0.4,0.2C38.2,9.9,38,10,37.9,10c-0.2,0.1-0.3,0.1-0.5,0.2
		c-0.2,0.1-0.4,0.1-0.7,0.2c-0.2,0-0.5,0-0.7,0l-7,0.8c0.2,0.1,0.4,0.2,0.7,0.3c0.3,0.1,0.4,0.1,0.5,0.1h0.4
		c-0.1-0.1-0.1-0.2-0.2-0.3c-0.1,0-0.1-0.1-0.2-0.1c0.1-0.1,0.2-0.1,0.4,0c0.2,0.1,0.4,0.2,0.6,0.3c0.2,0.1,0.4,0.2,0.6,0.3
		c0.2,0.1,0.4,0.2,0.5,0.3c0.2,0.1,0.5,0.2,0.8,0.3c0.3,0.1,0.6,0.2,0.9,0.3c0.3,0.1,0.5,0.2,0.7,0.2c0.2,0.1,0.3,0.1,0.4,0.1
		c0.1,0,0.1,0,0.2-0.1c0,0,0.1-0.1,0.2-0.1c0.1-0.1,0.3-0.1,0.5,0c0.2,0,0.3,0.1,0.4,0.1h1.7c0.1,0,0.1,0,0.2-0.1
		c0.1-0.1,0.2-0.1,0.2-0.1c0.1,0,0.2,0.1,0.3,0.2c0.2,0.1,0.3,0.2,0.5,0.2c0.2,0.1,0.4,0.1,0.7,0c0.3,0,0.5,0,0.8,0
		c0.3,0,0.6,0.2,0.9,0.4c0.4,0.2,0.7,0.5,1,0.8c0,0,0.1,0.1,0.1,0.1c0.1,0,0.1,0.1,0.1,0.1c0,0.2,0.1,0.3,0.2,0.5
		c0.1,0.2,0.2,0.3,0.4,0.5c0.1,0.2,0.3,0.3,0.5,0.4c0.2,0.1,0.3,0.2,0.4,0.3c0.1,0.1,0.3,0.1,0.5,0c0.2,0,0.4,0,0.5,0.2
		c-0.1,0.1-0.2,0.2-0.3,0.3c-0.1,0-0.2,0-0.3,0c-0.3,0-0.6-0.1-0.8-0.3c-0.2-0.2-0.5-0.4-0.9-0.5c0,0.1,0.1,0.2,0.1,0.3
		c0.1,0.1,0.1,0.2,0.1,0.3c0,0.1,0,0.2,0,0.2c0,0,0,0,0,0.2c0,0.2,0.1,0.5,0.2,0.7c0.1,0.2,0.3,0.4,0.5,0.6c0.1,0.1,0.2,0.2,0.4,0.2
		c0.2,0,0.4,0.1,0.6,0.2c-0.1,0.1-0.1,0.2-0.2,0.3s-0.2,0.1-0.2,0.3c-0.2-0.1-0.4-0.3-0.7-0.5c-0.3-0.2-0.5-0.5-0.6-0.7
		c0-0.1-0.1-0.2-0.1-0.5c0-0.2,0-0.4-0.1-0.5c-0.1-0.2-0.2-0.4-0.3-0.6c-0.1-0.2-0.2-0.4-0.3-0.6c0-0.1-0.1-0.1-0.2-0.2
		c-0.1-0.1-0.2-0.1-0.2-0.2c-0.3-0.1-0.6-0.1-1-0.2c-0.4-0.1-0.7-0.1-1.1-0.2c-0.3-0.1-0.6-0.1-0.9-0.1c-0.2,0-0.4,0-0.4,0
		c0,0-0.2,0-0.4,0.1c-0.2,0.1-0.4,0.2-0.7,0.2c-0.3,0.1-0.5,0.2-0.7,0.2c-0.2,0.1-0.3,0.1-0.4,0.1c-0.1,0-0.2,0-0.5-0.1
		c-0.2-0.1-0.4-0.1-0.6-0.2c-0.2,0-0.4,0-0.6,0c-0.2,0-0.5-0.1-0.7-0.2c-0.3-0.1-0.6-0.4-1-0.6c-0.4-0.3-0.8-0.6-1.2-0.8
		c-0.1-0.1-0.2-0.2-0.3-0.4c-0.1-0.2-0.2-0.3-0.4-0.3c-0.1,0-0.2,0-0.4,0.1c-0.2,0-0.3,0.1-0.4,0.2c0.3,0.3,0.7,0.5,1.1,0.7
		c0.1-0.1,0.2,0,0.4,0.2c0.2,0.2,0.4,0.4,0.4,0.5c-0.5-0.2-1.1-0.5-1.7-0.9c-0.6-0.4-1.2-0.6-1.7-0.6c-0.1,0-0.2,0-0.4-0.1
		c-0.2-0.1-0.3-0.1-0.4-0.1c0,0-0.1,0-0.3,0.1c-0.2,0.1-0.3,0.2-0.5,0.3c-0.2,0.1-0.4,0.2-0.5,0.3c-0.2,0.1-0.2,0.1-0.3,0.1
		c-0.1,0-0.3-0.1-0.7-0.2c-0.4-0.1-0.7-0.2-0.9-0.3c0,0-0.1,0-0.2,0c-0.1,0-0.2-0.1-0.3-0.2c0.2,0,0.3,0.1,0.6,0.1
		c0.2,0,0.4,0.1,0.6,0.1c0.2,0,0.4,0.1,0.5,0.1c0.1,0,0.2,0,0.3,0c0.1,0,0.3-0.1,0.6-0.2c0.3-0.1,0.6-0.3,0.9-0.3
		c0-0.1-0.1-0.1-0.2-0.2c-0.1,0-0.2-0.1-0.2-0.1c0,0-0.1,0.1-0.1,0.1c0,0,0,0-0.1,0H27c0-0.1,0-0.1,0-0.2c0-0.1,0.1-0.1,0.2-0.1
		c0.1,0,0.2,0.1,0.4,0.2c0.2,0.1,0.4,0.2,0.5,0.2c0.2,0.1,0.5,0.1,0.8,0.1c0.3,0,0.6,0,0.9,0.1c0,0,0.1,0.1,0.1,0.1c0,0,0.1,0,0.1,0
		c0.1,0,0.2,0,0.5-0.1c0.3-0.1,0.5-0.1,0.7-0.1c-0.2-0.3-0.4-0.5-0.7-0.6c-0.1,0-0.3,0-0.5,0c-0.2,0-0.4,0-0.6-0.1
		c-0.2-0.1-0.4-0.2-0.6-0.3c-0.2-0.1-0.4-0.2-0.5-0.2c-0.1,0-0.3,0.1-0.5,0.2c-0.3,0.1-0.5,0.2-0.7,0.3c0,0.1-0.1,0.1-0.2,0.2
		c-0.1,0.1-0.2,0.2-0.2,0.3c-0.1,0-0.1,0-0.2,0c-0.1,0-0.2,0-0.2,0c-0.1,0.2-0.3,0.3-0.4,0.3c0.1-0.3,0.2-0.4,0.5-0.5
		c0.3-0.1,0.5-0.2,0.7-0.5c-0.1,0-0.3,0-0.4,0.1c-0.2,0.1-0.3,0.1-0.4,0.1c-0.1,0-0.1,0-0.2-0.1c-0.1,0-0.2-0.1-0.3-0.1v-0.3
		c0.1-0.1,0.2-0.1,0.3,0c0.1,0,0.2,0,0.3,0c0-0.1-0.1-0.2-0.2-0.2c-0.1-0.1-0.1-0.1-0.2-0.2c0.1-0.2,0.3-0.2,0.4-0.2
		c0.1,0,0.3,0,0.4,0c0.1-0.1,0.1-0.2,0.1-0.4c0-0.3,0.3-0.4,0.9-0.3c0.6,0.1,1.4,0,2.4-0.2l-0.1-0.1c-0.2,0-0.4,0-0.6-0.1
		c-0.2,0-0.4-0.1-0.6-0.1c-0.2,0-0.4,0-0.6,0c-0.2,0-0.3,0.1-0.5,0.2h-0.3l0.1-0.3c-0.2-0.1-0.3-0.1-0.3-0.1c0,0-0.1,0-0.1,0
		c-0.1,0-0.1,0-0.2,0.2c-0.1,0.1-0.2,0.2-0.2,0.2c-0.1,0.1-0.2,0.1-0.3,0.1c-0.1,0-0.3,0.1-0.4,0.1c-0.2,0.3-0.4,0.5-0.5,0.7
		c-0.1,0.2-0.2,0.3-0.3,0.5C25,11.3,25,11.4,25,11.4c0,0.1,0,0.2,0.1,0.3c0,0.1,0.1,0.2,0.1,0.3c0,0.1,0,0.2-0.1,0.2
		c-0.1,0.1-0.2,0.1-0.3,0.2c-0.1,0-0.2,0-0.3,0c-0.1,0-0.1,0-0.2,0c0.1-0.2,0.1-0.3,0.2-0.3c0.1,0,0.2-0.1,0.2-0.2
		c0-0.2,0-0.4,0-0.6c0-0.2,0.1-0.4,0.2-0.5c0.1-0.2,0.3-0.3,0.5-0.5c0.2-0.2,0.3-0.3,0.3-0.4c0-0.1,0-0.2-0.1-0.2
		c0,0-0.1-0.1-0.1-0.1c0.1,0,0.3-0.1,0.5-0.3c0.2-0.2,0.3-0.3,0.5-0.4c0,0.1-0.1,0.2-0.2,0.3c-0.1,0.1-0.2,0.3-0.2,0.4
		c0,0.1,0.1,0.1,0.1,0.1c0,0,0,0,0.1,0c0,0,0.1,0,0.2-0.1c0.1-0.1,0.3-0.2,0.4-0.3c0.2-0.1,0.3-0.2,0.5-0.3c0.2-0.1,0.3-0.2,0.5-0.2
		c0,0,0.1,0,0.2,0c0.1,0,0.2,0,0.3-0.1c0.2-0.1,0.3-0.1,0.5-0.2c0.2-0.1,0.3-0.2,0.5-0.2c0.1-0.1,0.2-0.1,0.4-0.1c0.2,0,0.3,0,0.4,0
		c0.3,0,0.6-0.1,1-0.2c0.4-0.1,0.6-0.2,0.7-0.2h2.1c0.4,0,0.8-0.1,1.2-0.2c0.4-0.1,0.8-0.3,1.1-0.5c0.3-0.2,0.7-0.3,1-0.5
		c0.3-0.2,0.5-0.3,0.8-0.4V6.1c0,0-0.1,0-0.2,0c-0.3,0-0.7,0.1-1,0.3c-0.3,0.2-0.6,0.3-0.8,0.5c-0.9,0.4-1.8,0.5-2.6,0.5
		c-0.8,0-1.5-0.1-2.1-0.1c-0.3,0-0.6,0-0.9,0c-0.3,0-0.6,0.1-0.9,0.2c0,0.1-0.1,0.1-0.2,0.2c-0.1,0.1-0.2,0.1-0.3,0.2
		c-0.6,0.1-1.1,0.3-1.7,0.3c-0.5,0.1-1,0.3-1.3,0.8c-0.1,0-0.2,0-0.2-0.1c0-0.1,0-0.1,0-0.2c0-0.1,0.1-0.1,0.1-0.2
		c0.2-0.1,0.4-0.1,0.6-0.3c0.2-0.1,0.4-0.2,0.6-0.3c0.2-0.1,0.4-0.1,0.7-0.1c0.3,0,0.5-0.1,0.8-0.2c0.3-0.1,0.5-0.2,0.8-0.4
		C30,7,30.3,6.9,30.6,6.9h1.9c0.3,0,0.6,0,0.9,0.1c0.2,0,0.5,0,0.9,0c0.3,0,0.8-0.1,1.3-0.3c0.5-0.2,1.2-0.4,2-0.8
		c0.1-0.1,0.3-0.1,0.5-0.1c0.2,0,0.4,0,0.6,0c0.2-0.1,0.3-0.2,0.5-0.5c0.2-0.3,0.4-0.5,0.6-0.8c0,0,0.1,0,0.1,0c0.1,0,0.1,0,0.1,0
		c0.2-0.1,0.4-0.3,0.5-0.6c0.2-0.2,0.3-0.3,0.4-0.3c0.1,0,0.1,0,0.2,0.1c0.1,0,0.1,0.1,0.2,0.1c0,0.1,0,0.2-0.1,0.3
		c-0.1,0-0.1,0-0.2,0c-0.1,0-0.2,0-0.2,0c0,0,0,0.1-0.1,0.1c0,0.1-0.1,0.1-0.1,0.2c0,0.1-0.1,0.1-0.1,0.1c0,0-0.1,0-0.1-0.1
		c0,0-0.1,0.1-0.2,0.2C40.1,4.8,40,4.9,40,5.1c-0.1,0.2-0.1,0.4-0.2,0.6c0,0.2,0,0.4,0.1,0.6c0.3-0.5,0.7-1,1-1.5
		c0.3-0.5,0.7-1.1,1-1.6c0,0.1,0,0.3-0.1,0.6c-0.1,0.2-0.1,0.4-0.1,0.5c0,0.1,0,0.2,0.1,0.3c0,0.1,0.1,0.2,0.1,0.2
		c0.1,0,0.2-0.1,0.3-0.3c0.2-0.2,0.3-0.3,0.4-0.5c0-0.1-0.1-0.1-0.2-0.1c-0.1,0-0.1,0-0.2-0.1c0.1-0.2,0.2-0.2,0.3-0.2
		c0.1,0,0.2,0,0.3,0c0.2-0.1,0.5-0.3,0.7-0.6c0.2-0.2,0.4-0.4,0.7-0.6c0.1,0,0.2,0,0.3,0c0.1,0.1,0.2,0.1,0.3,0.1L46,2.1z M44,2.8
		c0.1,0,0.2,0,0.3,0c0.1,0,0.2,0,0.3-0.1l-0.1-0.1c0,0-0.1,0-0.2,0c-0.1,0-0.1,0-0.2,0.1C44.1,2.7,44.1,2.8,44,2.8z M43.7,5.7
		c0.1-0.1,0.1-0.1,0.2-0.2c0.1-0.1,0.2-0.2,0.3-0.2l-0.1,0.5H43.7z M42.2,5.8c0.1-0.1,0.3-0.1,0.4-0.1c0.1,0,0.2,0,0.3-0.1
		c0-0.1-0.1-0.1-0.1-0.2c0,0-0.1-0.1-0.2-0.1c-0.1,0-0.2,0.1-0.2,0.2C42.3,5.7,42.3,5.8,42.2,5.8z M42.9,16.6c0-0.1-0.1-0.3-0.2-0.4
		c-0.1-0.1-0.1-0.2-0.2-0.3c0.1,0.1,0.1,0.3,0.2,0.4C42.8,16.4,42.8,16.5,42.9,16.6z M42.6,15.1l0.1-0.1l-0.2-0.3l-0.1,0L42.6,15.1z
		 M42.2,14.5c-0.4-0.3-0.7-0.5-1.1-0.8c-0.4-0.2-0.7-0.3-1.1-0.3c0.4,0.2,0.7,0.4,1.1,0.6C41.5,14.2,41.9,14.4,42.2,14.5z
		 M42.2,15.2c-0.1-0.3-0.2-0.4-0.3-0.5c-0.2-0.1-0.3-0.1-0.4-0.2c0.1,0.1,0.3,0.3,0.4,0.4C41.9,15.1,42.1,15.2,42.2,15.2z M41.6,5.7
		c0.1,0,0.1,0,0.2-0.1c0.1-0.1,0.2-0.1,0.2-0.1C41.9,5.5,41.8,5.6,41.6,5.7z M41.7,6.1h0.3V5.9h-0.3V6.1z M41.5,15.1
		c-0.1-0.2-0.2-0.4-0.4-0.4c-0.2-0.1-0.3-0.1-0.5-0.2c-0.2,0-0.4-0.1-0.6-0.1c-0.2,0-0.4-0.2-0.5-0.3c-0.2,0.2-0.3,0.3-0.5,0.3
		c-0.2,0-0.3,0-0.4,0c0.5,0.1,0.9,0.2,1.4,0.3C40.5,14.9,41,15,41.5,15.1z M41.3,9.2c-0.2-0.1-0.4-0.2-0.6-0.4
		c-0.2-0.1-0.4-0.3-0.6-0.4c-0.2-0.1-0.4-0.3-0.5-0.4c-0.1-0.1-0.2-0.2-0.3-0.2c-0.1,0-0.2,0-0.3,0.1c-0.1,0-0.2,0.1-0.2,0.2
		c0.2,0.1,0.5,0.2,0.6,0.2c0.2,0,0.4,0.1,0.6,0.2c0.2,0.1,0.4,0.3,0.6,0.4C40.9,9.1,41.1,9.2,41.3,9.2z M40.5,5.7
		c0.1,0,0.1,0,0.2-0.1c0-0.1,0.1-0.1,0.1-0.2L40.5,5.7z M40.6,14.2c-0.1-0.1-0.3-0.1-0.4-0.2c-0.2-0.1-0.3-0.1-0.4-0.1
		c0.1,0.1,0.3,0.3,0.4,0.3C40.4,14.3,40.5,14.3,40.6,14.2z M40.2,6.5l0.4-0.3l0-0.1l-0.4,0.3L40.2,6.5z M40,9.3h0.3
		c0-0.1-0.1-0.1-0.1-0.2c0,0-0.1-0.1-0.1-0.1C40.1,9.1,40.1,9.2,40,9.3C40,9.2,40,9.3,40,9.3z M39.4,9.2h0.3L39.5,9
		C39.5,9.1,39.5,9.1,39.4,9.2C39.5,9.2,39.4,9.2,39.4,9.2z M38.7,7.8c0.1-0.1,0.1-0.1,0.2-0.2c0.1,0,0.1-0.1,0.2-0.1
		c0-0.1-0.1-0.1-0.1,0c0,0,0,0,0-0.1c0-0.1,0.1-0.2,0.2-0.3c0.2-0.1,0.3-0.2,0.4-0.3c-0.3,0-0.5,0.1-0.6,0.3
		C38.9,7.3,38.8,7.6,38.7,7.8z M39.3,6.2l0.2-0.3c0-0.1,0-0.3,0-0.4c0-0.1,0-0.2,0-0.3l-0.4,0.6c0.1,0.1,0.1,0.1,0.1,0.2
		C39.2,6.1,39.3,6.2,39.3,6.2z M36.1,14.6c0.1,0,0.2-0.1,0.3-0.2c0.1-0.1,0.2-0.2,0.3-0.2c0.2-0.1,0.4,0,0.7,0.1
		c0.3,0.1,0.5,0.1,0.7,0.1c0.2-0.1,0.5-0.1,0.8-0.2c0.3-0.1,0.5-0.2,0.5-0.4c-0.2-0.1-0.4-0.3-0.6-0.4c-0.2-0.1-0.4-0.2-0.5-0.2
		c-0.1,0-0.2,0-0.3,0.1c-0.1,0.1-0.2,0.1-0.3,0.1c-0.3,0-0.7,0-1.1-0.1c-0.4,0-0.8-0.1-1.1-0.1c-0.1,0-0.1,0-0.2,0.2
		c-0.1,0.1-0.2,0.2-0.2,0.2c-0.1,0-0.2-0.1-0.3-0.2c-0.2-0.1-0.3-0.2-0.4-0.2c-0.5-0.1-1.1-0.3-1.7-0.5c-0.6-0.2-1.2-0.5-1.7-0.9
		c0.3,0.3,0.6,0.5,0.9,0.8c0.3,0.3,0.7,0.5,1.1,0.8c0.4,0.2,0.8,0.4,1.1,0.6c0.4,0.1,0.8,0.2,1.1,0.3c0.2,0,0.4,0.1,0.6,0.2
		C35.9,14.5,36,14.6,36.1,14.6z M34.5,9.3c0.1,0,0.2,0,0.3-0.1c0.1-0.1,0.2-0.1,0.3-0.2c0.3,0,0.6,0,0.9,0c0.3,0,0.6,0,0.8,0
		c0.1,0,0.3,0,0.4-0.1c0.2-0.1,0.3-0.1,0.4-0.1c0.3,0,0.5,0,0.8,0.1c0.2,0.1,0.5,0.1,0.7,0.1c0.1,0,0.1-0.1,0.2-0.2
		c0.1-0.1,0.1-0.2,0.2-0.2c-0.1-0.1-0.3-0.1-0.5-0.2c-0.2-0.1-0.3-0.2-0.4-0.2c-0.1,0-0.2,0.1-0.3,0.2c-0.1,0.1-0.2,0.2-0.3,0.3
		c0-0.1-0.2-0.3-0.4-0.4c-0.2-0.1-0.4-0.2-0.5-0.2c-0.1,0-0.2,0-0.2,0.1c-0.1,0.1-0.1,0.1-0.2,0.1c-0.1-0.1-0.1-0.2-0.1-0.3
		c0-0.1,0-0.1,0.1-0.2C36.8,8,37,8,37.1,7.9c0.2,0,0.3,0,0.5,0c0.1,0,0.3-0.1,0.4-0.1c0.1-0.1,0.2-0.2,0.3-0.4
		c-0.5,0.1-1.1,0.3-1.8,0.6c-0.7,0.3-1.6,0.6-2.6,1.2c0.1,0,0.2,0,0.3,0.1C34.3,9.3,34.4,9.3,34.5,9.3z M38.3,7.1l0.3-0.2l0-0.1
		L38.3,7V7.1z M37.6,7.1l0.9-0.5l0-0.1L37.6,7V7.1z M34,10.3h1.8c0,0,0.1,0,0.3,0c0.1,0,0.3-0.1,0.5-0.1c0.2,0,0.3-0.1,0.5-0.1
		c0.2,0,0.3-0.1,0.5-0.1c0.1,0,0.3-0.1,0.6-0.2c0.2-0.1,0.4-0.3,0.5-0.4h-0.9c0,0-0.1,0-0.2,0.1c-0.1,0-0.2,0.1-0.4,0.2
		c-0.2,0.1-0.3,0.1-0.4,0.2c-0.1,0-0.3,0.1-0.3,0.1V9.6c-0.1-0.1-0.2-0.1-0.4-0.1c-0.1,0-0.4,0-0.7,0c0.2,0.1,0.3,0.1,0.5,0.1
		c0.2,0,0.3,0,0.4,0.3c-0.2,0.1-0.3,0.1-0.5,0.1c-0.1,0-0.3,0-0.4-0.1c-0.2-0.1-0.4-0.1-0.6-0.1C34.4,9.8,34.2,10,34,10.3z
		 M36.2,15.2c0.2,0,0.3,0,0.4,0c0.1,0,0.2-0.1,0.3-0.1c0.1,0,0.2-0.1,0.4-0.2c0.1-0.1,0.3-0.2,0.6-0.2c-0.2-0.1-0.4-0.1-0.6-0.2
		c-0.2,0-0.3-0.1-0.4-0.1c-0.1,0-0.2,0.1-0.4,0.2c-0.2,0.1-0.3,0.2-0.4,0.2c-0.1,0-0.3-0.1-0.6-0.2c-0.3-0.1-0.6-0.2-0.8-0.3
		c-0.3-0.1-0.5-0.1-0.8-0.2c-0.3-0.1-0.6-0.2-0.8-0.3c-0.3-0.1-0.5-0.3-0.8-0.5c-0.3-0.2-0.6-0.4-0.7-0.5c0.3,0.5,0.6,0.9,1.1,1.1
		s0.8,0.5,1.2,0.8c0.2,0.1,0.4,0.2,0.6,0.2c0.2,0,0.4,0,0.6,0.1c0.2,0.1,0.4,0.1,0.7,0.2C36,15.2,36.2,15.2,36.2,15.2z M35.9,11.1
		v-0.3c0.1,0,0.2-0.1,0.3-0.2c0,0,0.1,0,0.2,0c0.1,0.1,0.2,0.1,0.2,0.1c-0.1-0.1-0.2,0-0.3,0C36.2,10.9,36.1,11,35.9,11.1z
		 M36.2,7.7l0.3-0.1V7.5l-0.3,0.1V7.7z M35.9,7.9l0.3-0.1l0-0.1l-0.2,0.1V7.9z M34.6,8.6L34.6,8.6l0-0.2L34.6,8.6L34.6,8.6z
		 M29.5,9.4c0.3,0,0.7-0.1,1.1-0.2C31,9.1,31.4,9,31.8,8.9c0.4-0.1,0.8-0.3,1.3-0.4c0.4-0.1,0.9-0.2,1.4-0.2c0,0-0.1-0.1-0.2-0.1
		c-0.1,0-0.1,0-0.2,0c-0.6,0.1-1.3,0.3-1.9,0.4c-0.6,0.1-1.3,0.2-1.9,0.3c-0.3,0.1-0.7,0.1-1.2,0.1c-0.5,0-0.9,0.1-1.2,0.5
		c0.1,0,0.3,0,0.5,0c0.2,0,0.3,0,0.5,0c0.2,0,0.3,0,0.5,0.1C29.4,9.4,29.5,9.4,29.5,9.4z M30.8,9.8c0.2-0.1,0.5-0.2,0.7-0.3
		c0.2-0.1,0.4-0.2,0.7-0.3c0.2-0.1,0.4-0.1,0.6-0.1c0.2,0,0.4,0,0.6,0c0.2,0,0.4-0.1,0.6-0.2c0.2-0.1,0.4-0.2,0.5-0.2
		c-0.6,0-1.2,0.1-2,0.4c-0.7,0.3-1.5,0.5-2.2,0.7L30.8,9.8z M33.7,10.3c0.1-0.3,0.3-0.5,0.5-0.7c-0.1-0.1-0.3-0.1-0.4-0.2
		c-0.2-0.1-0.3-0.1-0.3-0.1c0,0-0.1,0-0.2,0.1c-0.1,0-0.3,0.1-0.5,0.2c-0.2,0.1-0.4,0.1-0.6,0.2c-0.2,0.1-0.4,0.1-0.5,0.1
		c-0.5,0.1-0.9,0.2-1.4,0.2c-0.5,0-0.9,0.1-1.3,0.1L33.7,10.3z M29.1,8.7h0.7c0,0,0.2,0,0.3-0.1c0.2,0,0.4-0.1,0.6-0.2
		c0.2-0.1,0.5-0.1,0.8-0.2c0.3-0.1,0.5-0.1,0.7-0.2h-0.7c-0.1,0-0.2,0-0.3,0.1c-0.1,0.1-0.2,0.1-0.3,0.1c-0.3,0.1-0.6,0.1-0.9,0.1
		C29.7,8.4,29.4,8.5,29.1,8.7z M28.6,11.1c0,0,0.2,0,0.5-0.1c0.3,0,0.6-0.1,0.9-0.2c0.4-0.1,0.7-0.1,1.1-0.2c0.4-0.1,0.7-0.1,1-0.2
		h-4l0.1,0.2l-0.1,0.2c0,0.1,0,0.1,0.1,0.2C28.4,11,28.5,11.1,28.6,11.1z M28.9,10.3v-0.2l-0.6-0.1v0.2L28.9,10.3z M27.6,10.9
		c0.1,0,0.2,0,0.2-0.1c0.1-0.1,0.1-0.1,0.2-0.2c0,0,0-0.1-0.1-0.1c-0.1,0-0.2,0-0.3,0c-0.1,0-0.2,0-0.3,0c-0.1,0-0.1,0-0.1,0
		c0,0.1,0.1,0.2,0.2,0.2C27.4,10.9,27.5,10.9,27.6,10.9z M27.6,11.3h0.3v-0.2h-0.3V11.3z"/>
</g>
</svg>
