<?xml version="1.0" encoding="utf-8"?>
<!-- Generator: Adobe Illustrator 18.1.1, SVG Export Plug-In . SVG Version: 6.00 Build 0)  -->
<svg version="1.1" id="Layer_1" xmlns="http://www.w3.org/2000/svg" xmlns:xlink="http://www.w3.org/1999/xlink" x="0px" y="0px"
	 viewBox="0 0 24.6 21.2" enable-background="new 0 0 24.6 21.2" xml:space="preserve">
<path fill="#010101" d="M22.9,0.5c0,0.1-0.1,0.2-0.3,0.4c-0.2,0.2-0.2,0.4-0.2,0.6c0,0.1,0.1,0.3,0.2,0.6s0.2,0.5,0.2,0.6
	c0,0.4-0.1,0.7-0.3,1c-0.2,0.3-0.3,0.5-0.3,0.6c-0.1,0.2-0.1,0.5-0.2,0.7c-0.1,0.2-0.1,0.4-0.2,0.6c0.2,0.1,0.4,0.3,0.6,0.3
	c0.2,0.1,0.4,0.2,0.6,0.3c0,0.1-0.1,0.1-0.1,0.2c0,0-0.1,0.1-0.1,0c-0.3-0.1-0.7-0.1-1-0.1c-0.3,0-0.6,0.1-0.7,0.2
	c-0.2,0.2-0.5,0.4-0.7,0.7c-0.2,0.3-0.5,0.6-0.8,1c-0.3,0.3-0.5,0.7-0.8,1c-0.3,0.3-0.6,0.6-0.9,0.8c-0.1,0.1-0.2,0.1-0.3,0.1
	s-0.2,0-0.3,0.1c-0.2,0.1-0.4,0.2-0.7,0.2c-0.2,0.1-0.4,0.1-0.6,0.2c-0.3,0.1-0.5,0.1-0.6,0.1c-0.2,0-0.3,0-0.5,0h-2.6
	c0,0-0.2,0-0.3,0.1c-0.2,0.1-0.4,0.1-0.6,0.2c-0.2,0.1-0.5,0.2-0.8,0.2c-0.3,0.1-0.5,0.2-0.7,0.2c-0.1,0-0.2,0.1-0.3,0.2
	c-0.1,0.1-0.2,0.1-0.2,0.1c-0.2,0.1-0.5,0.1-0.7,0.1c-0.2,0-0.4,0-0.6,0.1c0.4,0.1,0.8,0.2,1.2,0.3c0.4,0.1,0.8,0.2,1.1,0.2
	c0.1,0,0.2,0.1,0.3,0.2c0.1,0.1,0.2,0.2,0.3,0.2c0.2,0,0.4,0,0.6,0c0.2,0,0.4,0,0.5,0c0.6,0.2,1.2,0.4,1.8,0.7
	c0.6,0.2,1.2,0.5,1.8,0.8c0.3,0.1,0.5,0.1,0.8,0.1c0.3,0,0.5,0,0.6,0.1c0.3,0.1,0.7,0.2,1,0.4c0.3,0.2,0.6,0.3,0.9,0.4
	c0.1,0,0.2,0,0.4,0c0.2,0,0.3,0,0.5,0.2c-0.1,0.1-0.1,0.1-0.2,0.1c-0.1,0-0.1,0.1-0.1,0.1c0.1,0.1,0.2,0.1,0.3,0.2
	c0.1,0,0.2,0.1,0.2,0.2l-0.2,0.3c0,0.1,0.1,0.1,0,0.1c0,0,0,0,0,0.1c0.2,0.1,0.3,0.2,0.5,0.3c0.2,0.1,0.3,0.2,0.4,0.2
	c0.1,0,0.3,0,0.3-0.1c0.1-0.1,0.2-0.2,0.2-0.3c0.1-0.1,0.2-0.2,0.2-0.3c0.1-0.1,0.2-0.1,0.4-0.1c0.1,0,0.2,0,0.2,0.1
	c0.2,0.1,0.2,0.3,0.2,0.5c0,0.1,0,0.1-0.1,0.2l0,0c-0.3-0.1-0.6-0.1-0.9,0c-0.1,0.1-0.1,0.2-0.3,0.2c-0.1,0-0.2,0.1-0.2,0.3
	c0.1,0.1,0.2,0.1,0.3,0.1c0.1,0,0.2,0,0.3,0.1c0.1,0.1,0.1,0.1,0.2,0.2c0,0.1,0.1,0.1,0.1,0.2c0.1,0.1,0.3,0.2,0.5,0.2
	c0.2,0.1,0.4,0.1,0.6,0.2c0.2,0.1,0.3,0.1,0.5,0.1c0.1,0,0.2,0,0.3,0c0.2,0,0.3-0.1,0.3-0.2c0-0.2,0.1-0.3,0.2-0.5
	c0.1,0,0.2,0,0.3,0c0.1,0,0.2,0,0.3,0v0.3c-0.1,0-0.2,0-0.3,0c-0.1,0-0.2,0-0.3,0c0,0.1-0.1,0.2-0.1,0.3c0,0.1-0.1,0.2-0.1,0.2
	c-0.2,0-0.4,0-0.5-0.1c-0.2,0-0.3,0-0.5,0c-0.1,0-0.1,0-0.2,0.1c-0.1,0.1-0.1,0.1-0.2,0.1c0,0-0.1-0.1-0.3-0.2
	c-0.2-0.1-0.3-0.2-0.5-0.4c-0.2-0.1-0.4-0.3-0.5-0.4c-0.2-0.1-0.3-0.2-0.3-0.2c-0.1,0-0.3,0-0.5,0.1c-0.3,0-0.5,0.1-0.7,0.2
	c0.2,0.2,0.3,0.5,0.5,0.8c0.2,0.3,0.3,0.5,0.5,0.7c0.1,0.1,0.3,0.3,0.5,0.4c0.2,0.1,0.4,0.3,0.6,0.4c0.2,0.1,0.4,0.3,0.5,0.4
	c0.1,0.2,0.2,0.4,0.3,0.6H22c-0.2-0.3-0.5-0.5-0.7-0.7c-0.3-0.1-0.5-0.1-0.6,0.1c-0.2,0-0.4-0.1-0.6-0.3c-0.2-0.2-0.5-0.4-0.6-0.6
	c-0.1,0-0.1,0-0.2,0c-0.1-0.1-0.1-0.2-0.2-0.3C19,19.3,19,19.2,18.9,19c-0.1-0.3-0.2-0.5-0.3-0.7c-0.1-0.3-0.3-0.6-0.5-0.8
	c-0.2-0.2-0.4-0.4-0.6-0.5c-0.1-0.1-0.2-0.1-0.4-0.2c-0.1,0-0.2-0.1-0.3-0.1c-0.2-0.1-0.5-0.1-0.7-0.1c-0.2,0-0.5-0.1-0.7-0.1
	c-0.2,0-0.3,0-0.4-0.1c-0.1,0-0.3-0.1-0.4-0.1c-0.3,0-0.6,0-0.9,0c-0.3,0-0.6,0-0.8,0h-1.8c0,0-0.1,0-0.2-0.1
	c-0.1-0.1-0.3-0.1-0.5-0.2c-0.2-0.1-0.3-0.1-0.5-0.2c-0.1-0.1-0.2-0.1-0.3-0.1c-0.3,0-0.8,0-1.2,0c-0.5,0.1-0.8,0.1-1.1,0
	c-0.3,0-0.7-0.1-1-0.2c-0.3-0.1-0.7-0.2-1-0.3c-0.4-0.1-0.8-0.1-1.2-0.1c-0.4,0-0.8,0-1-0.1c-0.1,0-0.3,0-0.4-0.1
	c-0.2-0.1-0.3-0.1-0.4-0.2c-0.1,0-0.1-0.1-0.2-0.2C2,14.6,2,14.6,1.9,14.6c-0.1-0.1-0.2-0.1-0.4-0.2c-0.1-0.1-0.2-0.1-0.3-0.2
	c-0.2-0.1-0.4-0.2-0.6-0.4c-0.2-0.2-0.4-0.4-0.5-0.6c0-0.1-0.1-0.1-0.1-0.1C0,13.1,0,13,0,12.9l0-0.3c0.7-0.4,1.4-0.8,2.1-1.1
	c0.7-0.3,1.4-0.7,2.1-1.1c0.1-0.1,0.2-0.2,0.3-0.4c0.1-0.2,0.2-0.3,0.3-0.4c0.1-0.1,0.3-0.3,0.6-0.3c0.2-0.1,0.4-0.1,0.5-0.2
	c0.5-0.1,1.1-0.1,1.6,0c0.5,0.1,1.1,0.1,1.6,0C9.2,9.1,9.5,9,9.8,8.9s0.6-0.2,0.9-0.4c0.3-0.1,0.5-0.2,0.7-0.3
	C11.6,8.1,11.7,8,11.7,8c0.1,0,0.1,0.1,0.2,0.2c0,0.1,0.1,0.2,0.1,0.2c0.3,0,0.7-0.1,1.1-0.3c0.4-0.2,0.8-0.4,1.1-0.6
	c0.5-0.3,1.1-0.6,1.6-0.8C16.5,6.4,17,6.1,17.6,6c0.6-0.2,1.1-0.4,1.6-0.5c0.5-0.1,0.9-0.3,1.2-0.4c0,0,0.1-0.1,0.1-0.2
	c0.1-0.1,0.1-0.2,0.1-0.3c0-0.1,0-0.2,0-0.2c0,0,0,0,0-0.2c0-0.1,0-0.2,0.1-0.3c0.1-0.1,0.1-0.1,0.1-0.2c0-0.1,0.1-0.3,0-0.6
	c0-0.2,0-0.4,0.2-0.6c0.1,0.1,0.1,0.3,0.1,0.5c0,0.2,0,0.3,0,0.5s0,0.3,0,0.4c0,0.1,0.1,0.2,0.2,0.3c0.2,0,0.4-0.2,0.5-0.5
	c0.2-0.3,0.3-0.6,0.4-0.7c0-0.1,0.1-0.1,0.2-0.2c0.1,0,0.1-0.1,0.1-0.2c0-0.1-0.1-0.4-0.2-0.8c-0.1-0.4-0.2-0.6-0.2-0.8
	c0-0.2,0-0.3,0-0.4c0-0.1,0.1-0.2,0.1-0.2c0.1-0.1,0.1-0.1,0.2-0.2c0.1-0.1,0.2-0.2,0.3-0.4L22.9,0.5z M21.6,18.1l0.2,0.1l0-0.1
	l-0.2-0.1V18.1z M20.6,19.9c0.1,0,0.3,0.1,0.4,0.2c-0.3-0.2-0.6-0.3-0.8-0.4C20.3,19.8,20.5,19.9,20.6,19.9z M20.7,4.7h0.1V4.2h-0.1
	V4.7z M19.7,6.1c-0.2,0.1-0.3,0.2-0.4,0.4c-0.1,0.2-0.3,0.4-0.4,0.6c-0.1,0.2-0.2,0.4-0.3,0.6c0.1-0.1,0.1-0.1,0.2-0.2
	c0.1-0.1,0.1-0.2,0.2-0.2c0.2-0.2,0.4-0.4,0.6-0.6c0.2-0.2,0.4-0.4,0.7-0.6C20,6,19.8,6,19.7,6.1z M19.5,16.8
	c0.1,0.1,0.2,0.2,0.2,0.2H20c-0.1-0.1-0.2-0.1-0.3-0.2c-0.1-0.1-0.2-0.2-0.3-0.2C19.4,16.6,19.5,16.7,19.5,16.8z M18.7,16.9
	C18.6,16.9,18.6,17,18.7,16.9C18.6,17,18.6,17,18.7,16.9c0.1,0.4,0.3,0.6,0.6,0.6c0.3,0,0.5,0,0.7,0.1c-0.1-0.1-0.3-0.2-0.4-0.3
	c-0.2-0.1-0.3-0.2-0.4-0.3c0,0-0.1,0-0.2,0C18.9,17,18.8,16.9,18.7,16.9C18.7,16.9,18.7,16.9,18.7,16.9z M19.5,19.2l0.2,0.3l0.1-0.1
	L19.5,19.2L19.5,19.2z M18.9,7.7c-0.2,0.3-0.5,0.6-0.7,0.8C18,8.8,17.7,9,17.4,9.2c-0.3,0.2-0.6,0.3-0.9,0.4
	c0.3,0.1,0.5,0.1,0.8-0.1c0.3-0.1,0.6-0.3,0.8-0.6c0.3-0.3,0.5-0.6,0.8-0.9c0.3-0.3,0.5-0.7,0.8-1c-0.1,0-0.2-0.1-0.2-0.2
	C19.4,7.1,19.1,7.4,18.9,7.7z M18.6,5.9c-0.3,0.1-0.6,0.2-0.8,0.4H18c0.1,0,0.3-0.1,0.6-0.2c0.3-0.1,0.6-0.3,0.8-0.4
	C19.2,5.7,18.9,5.8,18.6,5.9z M19.1,18.6c0.1,0.1,0.2,0.2,0.4,0.4C19.4,18.8,19.3,18.7,19.1,18.6c0-0.2-0.1-0.3-0.2-0.4
	C18.8,18.3,18.9,18.5,19.1,18.6z M18.3,6.8c-0.2,0.1-0.4,0.2-0.6,0.2c-0.2,0-0.4,0-0.6-0.1c-0.2-0.1-0.4-0.1-0.6,0
	c-0.1,0-0.2,0.1-0.3,0.2c-0.1,0.1-0.3,0.2-0.4,0.3c-0.1,0.1-0.3,0.3-0.4,0.4C15.2,8,15.1,8.1,15,8.2c-0.4,0.1-0.8,0.2-1.2,0.3
	c-0.4,0-0.8,0.1-1.1,0.3c-0.3,0.1-0.6,0.3-1,0.5c-0.4,0.2-0.8,0.4-1.2,0.6c0.4-0.1,0.9-0.2,1.4-0.3c0.5-0.1,1-0.2,1.4-0.3
	c0.3-0.1,0.6-0.2,1-0.5c0.4-0.2,0.8-0.4,1.1-0.5c0.7-0.2,1.4-0.5,2-0.7c0.6-0.3,1.1-0.6,1.4-1C18.7,6.7,18.5,6.8,18.3,6.8z
	 M15.8,14.8c-0.3,0-0.7,0.1-1.1,0.2c-0.4,0.1-0.8,0.1-1.3,0.2c-0.4,0.1-0.8,0.2-1.2,0.3c0.2,0.1,0.4,0.1,0.5,0.2
	c0.1,0.1,0.2,0.1,0.4,0.2c0.1,0.1,0.2,0.1,0.4,0.1c0.2,0,0.4,0,0.7,0c0,0,0.1,0,0.4-0.1c0.2,0,0.5-0.1,0.8-0.2
	c0.3-0.1,0.6-0.1,0.9-0.2c0.3,0,0.6-0.1,0.9-0.1c0.2,0,0.5,0,0.7,0c0.2,0,0.5,0.1,0.8,0.1c-0.2-0.1-0.4-0.1-0.6-0.2
	c-0.2-0.1-0.4-0.2-0.7-0.3c-0.2-0.1-0.4-0.2-0.6-0.2c-0.2-0.1-0.3-0.1-0.3-0.1C16.4,14.7,16.2,14.7,15.8,14.8z M17.9,8.2
	c-0.2,0.1-0.4,0.1-0.6,0.1c-0.2,0-0.4,0-0.6,0c-0.2,0-0.4,0-0.6,0.1c-0.3,0.1-0.6,0.2-1,0.4C14.7,9,14.3,9.2,14,9.3
	c0.2,0.1,0.4,0.1,0.6,0.1c0.3,0,0.4,0,0.5,0c0.2,0,0.5,0,0.8-0.1c0.3-0.1,0.6-0.2,1-0.3c0.3-0.1,0.6-0.3,0.9-0.5
	c0.3-0.2,0.5-0.5,0.7-0.8C18.3,8,18.1,8.1,17.9,8.2z M17.9,7.7l0,0.1l0.4-0.3l0-0.1L17.9,7.7z M17.7,16.8c0.1,0.1,0.3,0.2,0.4,0.4
	c0-0.2-0.1-0.4-0.3-0.5c-0.2-0.1-0.3-0.2-0.4-0.2h-0.2C17.5,16.6,17.6,16.7,17.7,16.8z M17.2,6.4c-0.1,0-0.2,0.1-0.3,0.2
	c0.1,0,0.2,0,0.3,0.1c0.1,0.1,0.2,0.1,0.2,0.1c0.1,0,0.2,0,0.3-0.1c0.1,0,0.2-0.1,0.3-0.2c-0.1,0-0.2,0-0.3-0.1
	c-0.1-0.1-0.2-0.1-0.3-0.1C17.4,6.4,17.3,6.4,17.2,6.4z M15.6,16.1c-0.1,0-0.2,0.1-0.2,0.1c0.2,0.1,0.4,0.1,0.7,0.1
	c0.3,0,0.6,0.1,0.9,0.1c-0.2-0.1-0.4-0.2-0.7-0.3C16,16.1,15.9,16,15.8,16C15.7,16,15.7,16,15.6,16.1z M10.9,10.1
	c-0.8,0.3-1.6,0.5-2.4,0.7c-0.1,0-0.3,0.1-0.5,0.2c-0.2,0.1-0.4,0.2-0.7,0.3c0.7,0.1,1.3,0,1.9-0.2c0.6-0.2,1.1-0.4,1.8-0.5
	c0.2-0.1,0.5-0.1,0.8-0.2c0.3-0.1,0.6-0.1,0.8-0.1c0.2,0,0.5,0,0.8,0c0.3,0,0.6,0,0.8,0c0.3,0,0.7,0,1.1,0c0.4,0,0.8-0.1,1.1-0.4
	l-3.1-0.2C12.5,9.7,11.7,9.9,10.9,10.1z M12.5,14.5h2.2v-0.2h-2.2V14.5z M10.7,13.4c-0.2,0-0.4,0-0.6,0c-0.2,0-0.4,0-0.7,0
	c-0.2,0-0.4,0-0.6,0.1c-0.1,0-0.2,0.1-0.4,0.3C8.3,14,8.1,14.1,8,14.2c-0.3,0.1-0.6,0.2-0.9,0.3c-0.3,0.1-0.6,0.2-0.9,0.4h1.6
	c0,0,0.1,0,0.2-0.1c0.1,0,0.3-0.1,0.5-0.2c0.2-0.1,0.4-0.1,0.6-0.2c0.2-0.1,0.3-0.1,0.5-0.1c0.2-0.1,0.5,0,0.9,0
	c0.4,0.1,0.7,0.1,1,0c0.3-0.1,0.7-0.1,1-0.2c0.3,0,0.7-0.1,1-0.2c0.1,0,0.2,0,0.4-0.1c0.2,0,0.3,0,0.4,0c-0.6-0.3-1.2-0.5-1.8-0.5
	c-0.6,0-1.1-0.1-1.6-0.1C10.9,13.4,10.8,13.4,10.7,13.4z M11.6,14.8c-0.2,0-0.4,0.1-0.6,0.1c-0.2,0-0.4,0.1-0.7,0.1
	c-0.2,0.1-0.4,0.1-0.6,0.1c0.2,0,0.4,0,0.6,0.1c0.3,0,0.4,0.1,0.5,0.1c0,0,0.2,0,0.4,0c0.2,0,0.5-0.1,0.8-0.1
	c0.3-0.1,0.6-0.1,0.9-0.2c0.3-0.1,0.6-0.1,0.8-0.2H12C11.9,14.7,11.8,14.7,11.6,14.8z M10.5,15.7c0.2,0.1,0.5,0.2,0.9,0.2
	C11.7,16,11.9,16,12,16c0.1,0,0.2,0,0.4,0c0.2,0,0.3,0,0.4-0.1c-0.1-0.1-0.3-0.1-0.4-0.2s-0.3-0.1-0.4-0.2L10.5,15.7z M11.2,9l0,0.1
	l0.6-0.4V8.7L11.2,9z M11.4,8.6h0.3V8.4h-0.3V8.6z M10.3,9C10,9.1,9.7,9.2,9.4,9.3c0.1,0,0.2,0.1,0.4,0.2c0,0,0,0,0,0
	c0,0,0,0.1,0,0.1c0,0,0,0,0,0.1c-1,0-2.1,0.1-3.1,0.5c-1.1,0.3-2.1,0.8-3,1.3c0.5-0.2,1-0.4,1.5-0.6c0.6-0.2,1.1-0.4,1.5-0.5
	c0.3-0.1,0.6-0.1,1-0.2c0.3,0,0.7-0.1,1.1-0.1C9,9.9,9.3,9.8,9.7,9.7c0.4-0.1,0.7-0.3,1.1-0.6C10.9,9,11,9,11.1,9
	C10.9,8.9,10.7,8.9,10.3,9z M8.8,14.8c-0.4,0.2-0.6,0.3-0.8,0.3H6.1c0.1,0.1,0.3,0.1,0.6,0.2c0.3,0.1,0.6,0.2,0.8,0.2
	c0.5,0,0.8,0,1,0c0.2,0,0.4,0,0.6,0c0.1,0,0.2,0,0.2-0.1c0,0,0.1,0,0.1,0c-0.1,0-0.1-0.1-0.2-0.1c-0.1,0-0.2-0.1-0.2-0.2
	c0.1-0.2,0.3-0.3,0.6-0.3c0.3-0.1,0.6-0.1,0.9-0.1c-0.1,0-0.2,0-0.3-0.1c-0.1,0-0.2-0.1-0.3-0.1C9.6,14.5,9.2,14.6,8.8,14.8z
	 M9.9,9.9V10l0.6-0.1V9.8L9.9,9.9z M8.5,10.3c-0.5,0.1-1,0.2-1.5,0.3c-0.5,0.1-1,0.2-1.4,0.4c-0.4,0.2-0.8,0.3-1.2,0.5
	c0,0,0.1,0,0.1,0c0,0,0.1,0,0.1,0c0.1,0.1,0.1,0.1,0.1,0.2c0,0,0.1,0,0.1,0c0,0,0-0.1,0.1-0.1c0.1,0,0.2,0,0.3,0c0.1,0,0.2,0,0.3,0
	c0.5-0.1,0.9-0.3,1.4-0.5c0.5-0.2,1-0.4,1.5-0.6c0.2-0.1,0.4-0.2,0.7-0.2c0.3-0.1,0.5-0.1,0.8-0.2C9.4,10.1,8.9,10.2,8.5,10.3z
	 M6.9,13.3c-0.6,0.4-1.2,0.8-1.7,1.4c0.4-0.1,0.9-0.2,1.4-0.4c0.5-0.2,1-0.4,1.5-0.6c0-0.1,0-0.1,0.1-0.2c0-0.1,0.1-0.2,0.1-0.2
	c0,0,0.1,0,0.1,0c0,0,0.1,0,0.2,0c0.2,0,0.3,0,0.5-0.2C9.3,13,9.5,13,9.6,12.9c-0.1,0-0.3,0-0.4-0.1c-0.2,0-0.3-0.1-0.4-0.1
	C8.2,12.7,7.5,12.9,6.9,13.3z M7.4,12.5c-0.4,0.2-0.8,0.4-1.2,0.6c-0.4,0.2-0.8,0.4-1.1,0.6c-0.3,0.2-0.5,0.3-0.6,0.3
	c0,0.1,0,0.1,0,0.2c0,0.1,0,0.2,0,0.3c0.3,0,0.5-0.2,0.8-0.4c0.3-0.2,0.6-0.5,1-0.8c0.4-0.4,0.9-0.6,1.3-0.7c0.5,0,0.9-0.1,1.3-0.3
	c-0.1,0-0.2,0-0.3-0.1c-0.1,0-0.2-0.1-0.3-0.1C8.1,12.2,7.8,12.3,7.4,12.5z M6.1,9.4C5.9,9.5,5.6,9.6,5.4,9.7
	C5.2,9.8,5,9.9,4.8,10.1c-0.2,0.2-0.3,0.3-0.4,0.5c0.4-0.1,0.8-0.3,1.3-0.5s0.8-0.3,1.2-0.4C7,9.6,7.1,9.6,7.3,9.6
	c0.2,0,0.3,0,0.4,0C7.5,9.5,7.3,9.4,7.1,9.4c-0.2,0-0.3-0.1-0.4-0.1C6.5,9.3,6.3,9.3,6.1,9.4z M4.9,12c-0.2,0-0.4,0-0.5,0.1
	c0,0.1-0.1,0.1-0.1,0.2c0,0.1-0.1,0.2-0.2,0.2c-0.1,0-0.3,0.1-0.6,0.2c-0.2,0.1-0.5,0.2-0.7,0.3c-0.3,0.1-0.5,0.2-0.8,0.3
	c-0.3,0.1-0.5,0.1-0.8,0.1c-0.1,0-0.3-0.1-0.4-0.2c0-0.1,0-0.1,0.1-0.2c0.2,0,0.5-0.1,0.7-0.2c0.3-0.1,0.5-0.1,0.8-0.2
	c0,0.1,0.1,0.2,0.1,0.2c0,0,0.1-0.1,0.2-0.2l-1.7-0.1c-0.1,0.1-0.3,0.1-0.4,0.2s-0.3,0.1-0.4,0.2c0,0.2,0.1,0.4,0.3,0.6
	c0.2,0.2,0.4,0.3,0.7,0.4c0.3,0.1,0.5,0.2,0.8,0.3c0.3,0.1,0.5,0.1,0.6,0.1c0.3,0,0.6-0.1,0.9-0.2c0.3-0.2,0.7-0.4,1-0.6
	c0.1-0.1,0.3-0.2,0.5-0.2c0.2,0,0.4-0.1,0.6-0.3c0.2-0.1,0.4-0.2,0.6-0.4c0.2-0.1,0.4-0.3,0.6-0.4c-0.9,0.1-1.5,0.3-1.9,0.5
	c-0.4,0.2-0.8,0.4-1,0.6c-0.3,0.2-0.6,0.3-0.9,0.5c-0.3,0.1-0.8,0.2-1.4,0.2c-0.1,0-0.1,0-0.2,0s-0.2,0-0.2-0.1v-0.1
	c0.3,0,0.6-0.1,1-0.1c0.4-0.1,0.7-0.2,1-0.3c0.4-0.2,0.7-0.4,1.1-0.6c0.3-0.2,0.7-0.5,1-0.7C5.3,12,5.1,12,4.9,12z M5.3,15.1h0.2
	v-0.2H5.3V15.1z M3,12c-0.3,0-0.5,0.1-0.8,0.2c0.1,0.1,0.2,0.1,0.4,0.1c0.1,0,0.2,0,0.5-0.1c0.2-0.1,0.4-0.2,0.6-0.3
	C3.5,11.9,3.3,11.9,3,12z M2.3,11.6c-0.3,0.1-0.7,0.3-1,0.5C1.6,12.1,1.8,12,2.1,12c0.3-0.1,0.6-0.2,0.9-0.3c0,0,0.1-0.1,0.1-0.2
	c0.1-0.1,0.1-0.2,0.1-0.3C3,11.4,2.7,11.5,2.3,11.6z"/>
</svg>
