<?xml version="1.0" encoding="utf-8"?>
<!-- Generator: Adobe Illustrator 18.1.1, SVG Export Plug-In . SVG Version: 6.00 Build 0)  -->
<svg version="1.1" id="Layer_1" xmlns="http://www.w3.org/2000/svg" xmlns:xlink="http://www.w3.org/1999/xlink" x="0px" y="0px"
	 viewBox="0 0 24.6 21.2" enable-background="new 0 0 24.6 21.2" xml:space="preserve">
<path fill="#010101" d="M1.7,20.7c0-0.1,0.1-0.2,0.3-0.4c0.2-0.2,0.2-0.4,0.2-0.6c0-0.1-0.1-0.3-0.2-0.6c-0.1-0.3-0.2-0.5-0.2-0.6
	c0-0.4,0.1-0.7,0.3-1c0.2-0.3,0.3-0.5,0.3-0.6c0.1-0.2,0.1-0.5,0.2-0.7c0.1-0.2,0.1-0.4,0.2-0.6c-0.2-0.1-0.4-0.3-0.6-0.3
	c-0.2-0.1-0.4-0.2-0.6-0.3C1.8,15,1.8,15,1.8,15c0,0,0.1-0.1,0.1,0c0.3,0.1,0.7,0.1,1,0.1c0.3,0,0.6-0.1,0.7-0.2
	c0.2-0.2,0.5-0.4,0.7-0.7c0.2-0.3,0.5-0.6,0.8-1c0.3-0.3,0.5-0.7,0.8-1c0.3-0.3,0.6-0.6,0.9-0.8c0.1-0.1,0.2-0.1,0.3-0.1
	s0.2,0,0.3-0.1C7.8,11.1,8,11,8.2,10.9c0.2-0.1,0.4-0.1,0.6-0.2c0.3-0.1,0.5-0.1,0.6-0.1c0.2,0,0.3,0,0.5,0h2.6c0,0,0.2,0,0.3-0.1
	c0.2-0.1,0.4-0.1,0.6-0.2c0.2-0.1,0.5-0.2,0.8-0.2c0.3-0.1,0.5-0.2,0.7-0.2c0.1,0,0.2-0.1,0.3-0.2c0.1-0.1,0.2-0.1,0.2-0.1
	c0.2-0.1,0.5-0.1,0.7-0.1c0.2,0,0.4,0,0.6-0.1c-0.4-0.1-0.8-0.2-1.2-0.3C15.3,9,14.9,9,14.5,8.9c-0.1,0-0.2-0.1-0.3-0.2
	c-0.1-0.1-0.2-0.2-0.3-0.2c-0.2,0-0.4,0-0.6,0c-0.2,0-0.4,0-0.5,0c-0.6-0.2-1.2-0.4-1.8-0.7c-0.6-0.2-1.2-0.5-1.8-0.8
	C9,7,8.8,6.9,8.5,6.9c-0.3,0-0.5,0-0.6-0.1c-0.3-0.1-0.7-0.2-1-0.4C6.6,6.3,6.3,6.1,6,6C5.9,6,5.8,6,5.6,6c-0.2,0-0.3,0-0.5-0.2
	c0.1-0.1,0.1-0.1,0.2-0.1c0.1,0,0.1-0.1,0.1-0.1C5.3,5.6,5.2,5.5,5.1,5.5C5,5.4,4.9,5.4,4.9,5.3L5,5C5,5,5,4.9,5,4.9c0,0,0,0,0-0.1
	C4.8,4.8,4.6,4.7,4.4,4.5C4.3,4.4,4.1,4.3,4.1,4.3c-0.1,0-0.3,0-0.3,0.1C3.7,4.5,3.6,4.6,3.5,4.7C3.4,4.8,3.4,4.9,3.3,5
	S3,5.2,2.8,5.2c-0.1,0-0.2,0-0.2-0.1C2.4,5,2.3,4.8,2.3,4.6c0-0.1,0-0.1,0.1-0.2l0,0c0.3,0.1,0.6,0.1,0.9,0c0.1-0.1,0.1-0.2,0.3-0.2
	c0.1,0,0.2-0.1,0.2-0.3C3.7,3.9,3.6,3.9,3.5,3.9c-0.1,0-0.2,0-0.3-0.1C3.2,3.7,3.1,3.6,3.1,3.5C3.1,3.4,3,3.4,3,3.4
	C2.8,3.3,2.7,3.2,2.5,3.1C2.3,3,2.1,3,1.9,2.9C1.7,2.9,1.6,2.8,1.4,2.8c-0.1,0-0.2,0-0.3,0C1,2.8,0.9,2.8,0.9,3
	c0,0.2-0.1,0.3-0.2,0.5c-0.1,0-0.2,0-0.3,0c-0.1,0-0.2,0-0.3,0L0,3c0.1,0,0.2,0,0.3,0c0.1,0,0.2,0,0.3,0c0-0.1,0.1-0.2,0.1-0.3
	c0-0.1,0.1-0.2,0.1-0.2c0.2,0,0.4,0,0.5,0.1c0.2,0,0.3,0,0.5,0c0.1,0,0.1,0,0.2-0.1c0.1-0.1,0.1-0.1,0.2-0.1c0,0,0.1,0.1,0.3,0.2
	C2.8,2.7,2.9,2.8,3.1,3c0.2,0.1,0.4,0.3,0.5,0.4C3.8,3.5,3.9,3.5,4,3.5c0.1,0,0.3,0,0.5-0.1c0.3,0,0.5-0.1,0.7-0.2
	C5.1,3.1,4.9,2.8,4.7,2.5C4.6,2.3,4.4,2,4.2,1.8C4.1,1.7,4,1.5,3.7,1.4C3.5,1.3,3.3,1.1,3.1,1C2.9,0.9,2.8,0.7,2.6,0.6
	C2.5,0.4,2.4,0.2,2.3,0l0.2,0C2.8,0.3,3,0.5,3.3,0.7c0.3,0.1,0.5,0.1,0.6-0.1c0.2,0,0.4,0.1,0.6,0.3C4.8,1,5,1.2,5.2,1.4
	c0.1,0,0.1,0,0.2,0c0.1,0.1,0.1,0.2,0.2,0.3C5.6,1.9,5.6,2,5.7,2.2C5.8,2.4,5.9,2.7,6,2.9c0.1,0.3,0.3,0.6,0.5,0.8
	c0.2,0.2,0.4,0.4,0.6,0.5c0.1,0.1,0.2,0.1,0.4,0.2c0.1,0,0.2,0.1,0.3,0.1C8,4.5,8.3,4.5,8.5,4.6c0.2,0,0.5,0.1,0.7,0.1
	c0.2,0,0.3,0,0.4,0.1c0.1,0,0.3,0.1,0.4,0.1c0.3,0,0.6,0,0.9,0c0.3,0,0.6,0,0.8,0h1.8c0,0,0.1,0,0.2,0.1C13.9,5,14,5.1,14.2,5.2
	c0.2,0.1,0.3,0.1,0.5,0.2c0.1,0.1,0.2,0.1,0.3,0.1c0.3,0,0.8,0,1.2,0c0.5-0.1,0.8-0.1,1.1,0c0.3,0,0.7,0.1,1,0.2
	c0.3,0.1,0.7,0.2,1,0.3C19.7,6,20.1,6,20.5,6c0.4,0,0.8,0,1,0.1c0.1,0,0.3,0,0.4,0.1c0.2,0.1,0.3,0.1,0.4,0.2c0.1,0,0.1,0.1,0.2,0.2
	c0.1,0.1,0.1,0.1,0.1,0.1c0.1,0.1,0.2,0.1,0.4,0.2c0.1,0.1,0.2,0.1,0.3,0.2c0.2,0.1,0.4,0.2,0.6,0.4c0.2,0.2,0.4,0.4,0.5,0.6
	c0,0.1,0.1,0.1,0.1,0.1c0,0,0.1,0.1,0.1,0.2v0.3c-0.7,0.4-1.4,0.8-2.1,1.1c-0.7,0.3-1.4,0.7-2.1,1.1c-0.1,0.1-0.2,0.2-0.3,0.4
	c-0.1,0.2-0.2,0.3-0.3,0.4c-0.1,0.1-0.3,0.3-0.6,0.3C19,11.9,18.9,12,18.8,12c-0.5,0.1-1.1,0.1-1.6,0c-0.5-0.1-1.1-0.1-1.6,0
	c-0.2,0.1-0.5,0.1-0.8,0.3s-0.6,0.2-0.9,0.4c-0.3,0.1-0.5,0.2-0.7,0.3c-0.2,0.1-0.3,0.2-0.3,0.2c-0.1,0-0.1-0.1-0.2-0.2
	c0-0.1-0.1-0.2-0.1-0.2c-0.3,0-0.7,0.1-1.1,0.3c-0.4,0.2-0.8,0.4-1.1,0.6c-0.5,0.3-1.1,0.6-1.6,0.8C8.1,14.8,7.6,15,7,15.2
	c-0.6,0.2-1.1,0.4-1.6,0.5C5,15.9,4.6,16,4.3,16.1c0,0-0.1,0.1-0.1,0.2c-0.1,0.1-0.1,0.2-0.1,0.3c0,0.1,0,0.2,0,0.2c0,0,0,0,0,0.2
	c0,0.1,0,0.2-0.1,0.3C4,17.3,4,17.3,4,17.3c0,0.1-0.1,0.3,0,0.6c0,0.2,0,0.4-0.2,0.6c-0.1-0.1-0.1-0.3-0.1-0.5c0-0.2,0-0.3,0-0.5
	c0-0.2,0-0.3,0-0.4c0-0.1-0.1-0.2-0.2-0.3c-0.2,0-0.4,0.2-0.5,0.5c-0.2,0.3-0.3,0.6-0.4,0.7c0,0.1-0.1,0.1-0.2,0.2
	c-0.1,0-0.1,0.1-0.1,0.2c0,0.1,0.1,0.4,0.2,0.8c0.1,0.4,0.2,0.6,0.2,0.8c0,0.2,0,0.3,0,0.4c0,0.1-0.1,0.2-0.1,0.2
	c-0.1,0.1-0.1,0.1-0.2,0.2C2,20.9,1.9,21,1.8,21.2L1.7,20.7z M3,3.1L2.8,3l0,0.1L3,3.2V3.1z M4,1.2c-0.1,0-0.3-0.1-0.4-0.2
	c0.3,0.2,0.6,0.3,0.8,0.4C4.2,1.4,4.1,1.3,4,1.2z M3.8,16.4H3.7V17h0.1V16.4z M4.9,15.1c0.2-0.1,0.3-0.2,0.4-0.4
	c0.1-0.2,0.3-0.4,0.4-0.6c0.1-0.2,0.2-0.4,0.3-0.6c-0.1,0.1-0.1,0.1-0.2,0.2c-0.1,0.1-0.1,0.2-0.2,0.2c-0.2,0.2-0.4,0.4-0.6,0.6
	c-0.2,0.2-0.4,0.4-0.7,0.6C4.6,15.2,4.7,15.2,4.9,15.1z M5,4.4C5,4.3,4.9,4.2,4.8,4.2H4.6c0.1,0.1,0.2,0.1,0.3,0.2
	C5,4.5,5.1,4.6,5.2,4.6C5.2,4.6,5.1,4.5,5,4.4z M5.9,4.3C6,4.2,6,4.2,5.9,4.3C6,4.2,6,4.2,5.9,4.3C5.8,3.9,5.6,3.7,5.3,3.7
	c-0.3,0-0.5,0-0.7-0.1C4.7,3.6,4.9,3.7,5,3.9C5.2,4,5.3,4.1,5.4,4.2c0,0,0.1,0,0.2,0C5.7,4.2,5.8,4.2,5.9,4.3
	C5.9,4.3,5.9,4.3,5.9,4.3z M5,2L4.8,1.6L4.7,1.7L5,2L5,2z M5.7,13.5c0.2-0.3,0.5-0.6,0.7-0.8c0.2-0.3,0.5-0.5,0.8-0.7
	c0.3-0.2,0.6-0.3,0.9-0.4c-0.3-0.1-0.5-0.1-0.8,0.1c-0.3,0.1-0.6,0.3-0.8,0.6c-0.3,0.3-0.5,0.6-0.8,0.9c-0.3,0.3-0.5,0.7-0.8,1
	c0.1,0,0.2,0.1,0.2,0.2C5.2,14.1,5.4,13.8,5.7,13.5z M6,15.3c0.3-0.1,0.6-0.2,0.8-0.4H6.5c-0.1,0-0.3,0.1-0.6,0.2
	c-0.3,0.1-0.6,0.3-0.8,0.4C5.4,15.5,5.7,15.4,6,15.3z M5.5,2.6C5.4,2.5,5.3,2.4,5.2,2.2C5.2,2.4,5.3,2.5,5.5,2.6
	c0,0.2,0.1,0.3,0.2,0.4C5.7,2.8,5.7,2.7,5.5,2.6z M6.3,14.3c0.2-0.1,0.4-0.2,0.6-0.2c0.2,0,0.4,0,0.6,0.1c0.2,0.1,0.4,0.1,0.6,0
	c0.1,0,0.2-0.1,0.3-0.2c0.1-0.1,0.3-0.2,0.4-0.3c0.1-0.1,0.3-0.3,0.4-0.4c0.2-0.1,0.3-0.2,0.4-0.3c0.4-0.1,0.8-0.2,1.2-0.3
	c0.4,0,0.8-0.1,1.1-0.3c0.3-0.1,0.6-0.3,1-0.5c0.4-0.2,0.8-0.4,1.2-0.6c-0.4,0.1-0.9,0.2-1.4,0.3c-0.5,0.1-1,0.2-1.4,0.3
	c-0.3,0.1-0.6,0.2-1,0.5c-0.4,0.2-0.8,0.4-1.1,0.5c-0.7,0.2-1.4,0.5-2,0.7c-0.6,0.3-1.1,0.6-1.4,1C5.9,14.5,6.1,14.4,6.3,14.3z
	 M8.7,6.4c0.3,0,0.7-0.1,1.1-0.2c0.4-0.1,0.8-0.1,1.3-0.2c0.4-0.1,0.8-0.2,1.2-0.3c-0.2-0.1-0.4-0.1-0.5-0.2
	c-0.1-0.1-0.2-0.1-0.4-0.2c-0.1-0.1-0.2-0.1-0.4-0.1c-0.2,0-0.4,0-0.7,0c0,0-0.1,0-0.4,0.1c-0.2,0-0.5,0.1-0.8,0.2
	C9,5.5,8.7,5.6,8.3,5.6C8,5.7,7.7,5.7,7.5,5.7c-0.2,0-0.5,0-0.7,0C6.5,5.7,6.2,5.7,6,5.6c0.2,0.1,0.4,0.1,0.6,0.2
	C6.8,6,7,6.1,7.2,6.2c0.2,0.1,0.4,0.2,0.6,0.2C7.9,6.4,8,6.5,8.1,6.5C8.2,6.5,8.4,6.4,8.7,6.4z M6.7,13c0.2-0.1,0.4-0.1,0.6-0.1
	c0.2,0,0.4,0,0.6,0c0.2,0,0.4,0,0.6-0.1c0.3-0.1,0.6-0.2,1-0.4c0.4-0.2,0.8-0.4,1.1-0.6c-0.2-0.1-0.4-0.1-0.6-0.1
	c-0.3,0-0.4,0-0.5,0c-0.2,0-0.5,0-0.8,0.1c-0.3,0.1-0.6,0.2-1,0.3c-0.3,0.1-0.6,0.3-0.9,0.5c-0.3,0.2-0.5,0.5-0.7,0.8
	C6.3,13.2,6.5,13,6.7,13z M6.6,13.5l0-0.1l-0.4,0.3l0,0.1L6.6,13.5z M6.9,4.3C6.7,4.2,6.6,4.1,6.4,4c0,0.2,0.1,0.4,0.3,0.5
	C6.9,4.6,7,4.6,7.1,4.6h0.2C7.1,4.6,7,4.5,6.9,4.3z M7.4,14.7c0.1,0,0.2-0.1,0.3-0.2c-0.1,0-0.2,0-0.3-0.1c-0.1-0.1-0.2-0.1-0.2-0.1
	c-0.1,0-0.2,0-0.3,0.1c-0.1,0-0.2,0.1-0.3,0.2c0.1,0,0.2,0,0.3,0.1c0.1,0.1,0.2,0.1,0.3,0.1C7.2,14.8,7.3,14.8,7.4,14.7z M9,5.1
	C9.1,5.1,9.2,5,9.2,5C9,5,8.8,4.9,8.6,4.9C8.3,4.9,8,4.8,7.6,4.8C7.8,4.9,8,4.9,8.3,5c0.3,0.1,0.4,0.1,0.5,0.1
	C8.8,5.2,8.9,5.1,9,5.1z M13.7,11.1c0.8-0.3,1.6-0.5,2.4-0.7c0.1,0,0.3-0.1,0.5-0.2c0.2-0.1,0.4-0.2,0.7-0.3c-0.7-0.1-1.3,0-1.9,0.2
	c-0.6,0.2-1.1,0.4-1.8,0.5c-0.2,0.1-0.5,0.1-0.8,0.2c-0.3,0.1-0.6,0.1-0.8,0.1c-0.2,0-0.5,0-0.8,0c-0.3,0-0.6,0-0.8,0
	c-0.3,0-0.7,0-1.1,0c-0.4,0-0.8,0.1-1.1,0.4l3.1,0.2C12.1,11.4,12.9,11.3,13.7,11.1z M12.1,6.7H10v0.2h2.2V6.7z M13.9,7.7
	c0.2,0,0.4,0,0.6,0c0.2,0,0.4,0,0.7,0c0.2,0,0.4,0,0.6-0.1c0.1,0,0.2-0.1,0.4-0.3C16.3,7.1,16.5,7,16.6,7c0.3-0.1,0.6-0.2,0.9-0.3
	c0.3-0.1,0.6-0.2,0.9-0.4h-1.6c0,0-0.1,0-0.2,0.1c-0.1,0-0.3,0.1-0.5,0.2c-0.2,0.1-0.4,0.1-0.6,0.2c-0.2,0.1-0.3,0.1-0.5,0.1
	c-0.2,0.1-0.5,0-0.9,0c-0.4-0.1-0.7-0.1-1,0c-0.3,0.1-0.7,0.1-1,0.2c-0.3,0-0.7,0.1-1,0.2c-0.1,0-0.2,0-0.4,0.1c-0.2,0-0.3,0-0.4,0
	c0.6,0.3,1.2,0.5,1.8,0.5c0.6,0,1.1,0.1,1.6,0.1C13.7,7.7,13.8,7.7,13.9,7.7z M12.9,6.4c0.2,0,0.4-0.1,0.6-0.1
	c0.2,0,0.4-0.1,0.7-0.1c0.2-0.1,0.4-0.1,0.6-0.1c-0.2,0-0.4,0-0.6-0.1c-0.3,0-0.4-0.1-0.5-0.1c0,0-0.2,0-0.4,0
	c-0.2,0-0.5,0.1-0.8,0.1c-0.3,0.1-0.6,0.1-0.9,0.2c-0.3,0.1-0.6,0.1-0.8,0.2h1.8C12.7,6.5,12.8,6.4,12.9,6.4z M14.1,5.5
	c-0.2-0.1-0.5-0.2-0.9-0.2c-0.3-0.1-0.5-0.1-0.6-0.1c-0.1,0-0.2,0-0.4,0c-0.2,0-0.3,0-0.4,0.1c0.1,0.1,0.3,0.1,0.4,0.2
	c0.2,0,0.3,0.1,0.4,0.2L14.1,5.5z M13.3,12.1l0-0.1l-0.6,0.4v0.1L13.3,12.1z M13.2,12.6h-0.3v0.2h0.3V12.6z M14.3,12.2
	c0.3-0.1,0.6-0.2,0.9-0.2c-0.1,0-0.2-0.1-0.4-0.2c0,0,0,0,0,0c0,0,0-0.1,0-0.1c0,0,0,0,0-0.1c1,0,2.1-0.1,3.1-0.5
	c1.1-0.3,2.1-0.8,3-1.3c-0.5,0.2-1,0.4-1.5,0.6c-0.6,0.2-1.1,0.4-1.5,0.5c-0.3,0.1-0.6,0.1-1,0.2c-0.3,0-0.7,0.1-1.1,0.1
	c-0.4,0.1-0.7,0.1-1.1,0.3c-0.4,0.1-0.7,0.3-1.1,0.6c-0.1,0.1-0.2,0.1-0.3,0.1C13.7,12.2,13.9,12.2,14.3,12.2z M15.8,6.3
	C16.2,6.1,16.4,6,16.6,6h1.8c-0.1-0.1-0.3-0.1-0.6-0.2c-0.3-0.1-0.6-0.2-0.8-0.2c-0.5,0-0.8,0-1,0c-0.2,0-0.4,0-0.6,0
	c-0.1,0-0.2,0-0.2,0.1c0,0-0.1,0-0.1,0c0.1,0,0.1,0.1,0.2,0.1c0.1,0,0.2,0.1,0.2,0.2c-0.1,0.2-0.3,0.3-0.6,0.3
	c-0.3,0.1-0.6,0.1-0.9,0.1c0.1,0,0.2,0,0.3,0.1c0.1,0,0.2,0.1,0.3,0.1C15,6.6,15.4,6.5,15.8,6.3z M14.7,11.3v-0.2l-0.6,0.1v0.2
	L14.7,11.3z M16.1,10.9c0.5-0.1,1-0.2,1.5-0.3c0.5-0.1,1-0.2,1.4-0.4c0.4-0.2,0.8-0.3,1.2-0.5c0,0-0.1,0-0.1,0c0,0-0.1,0-0.1,0
	c-0.1-0.1-0.1-0.1-0.1-0.2c0,0-0.1,0-0.1,0c0,0,0,0.1-0.1,0.1c-0.1,0-0.2,0-0.3,0c-0.1,0-0.2,0-0.3,0c-0.5,0.1-0.9,0.3-1.4,0.5
	c-0.5,0.2-1,0.4-1.5,0.6c-0.2,0.1-0.4,0.2-0.7,0.2c-0.3,0.1-0.5,0.1-0.8,0.2C15.2,11.1,15.6,11,16.1,10.9z M17.7,7.9
	c0.6-0.4,1.2-0.8,1.7-1.4C19,6.6,18.5,6.7,18,6.9c-0.5,0.2-1,0.4-1.5,0.6c0,0.1,0,0.1-0.1,0.2c0,0.1-0.1,0.2-0.1,0.2
	c0,0-0.1,0-0.1,0c0,0-0.1,0-0.2,0c-0.2,0-0.3,0-0.5,0.2c-0.2,0.1-0.4,0.2-0.6,0.3c0.1,0,0.3,0,0.4,0.1c0.2,0,0.3,0.1,0.4,0.1
	C16.4,8.4,17.1,8.2,17.7,7.9z M17.2,8.7c0.4-0.2,0.8-0.4,1.2-0.6c0.4-0.2,0.8-0.4,1.1-0.6c0.3-0.2,0.5-0.3,0.6-0.3
	c0-0.1,0-0.1,0-0.2c0-0.1,0-0.2,0-0.3c-0.3,0-0.5,0.2-0.8,0.4c-0.3,0.2-0.6,0.5-1,0.8c-0.4,0.4-0.9,0.6-1.3,0.7
	c-0.5,0-0.9,0.1-1.3,0.3c0.1,0,0.2,0,0.3,0.1c0.1,0,0.2,0.1,0.3,0.1C16.5,9,16.8,8.9,17.2,8.7z M18.5,11.8c0.2-0.1,0.5-0.2,0.7-0.3
	c0.2-0.1,0.4-0.3,0.6-0.4c0.2-0.2,0.3-0.3,0.4-0.5c-0.4,0.1-0.8,0.3-1.3,0.5c-0.4,0.2-0.8,0.3-1.2,0.4c-0.1,0.1-0.2,0.1-0.4,0.1
	c-0.2,0-0.3,0-0.4,0c0.2,0.1,0.3,0.1,0.6,0.2c0.2,0,0.3,0.1,0.4,0.1C18,11.9,18.2,11.8,18.5,11.8z M19.7,9.2c0.2,0,0.4,0,0.5-0.1
	c0-0.1,0.1-0.1,0.1-0.2c0-0.1,0.1-0.2,0.2-0.2c0.1,0,0.3-0.1,0.6-0.2c0.2-0.1,0.5-0.2,0.7-0.3c0.3-0.1,0.5-0.2,0.8-0.3
	c0.3-0.1,0.5-0.1,0.8-0.1c0.1,0,0.3,0.1,0.4,0.2c0,0.1,0,0.1-0.1,0.2c-0.2,0-0.5,0.1-0.7,0.2c-0.3,0.1-0.5,0.1-0.8,0.2
	c0-0.1-0.1-0.2-0.1-0.2c0,0-0.1,0.1-0.2,0.2l1.7,0.1c0.1-0.1,0.3-0.1,0.4-0.2c0.2,0,0.3-0.1,0.4-0.2c0-0.2-0.1-0.4-0.3-0.6
	c-0.2-0.2-0.4-0.3-0.7-0.4C22.9,7.1,22.6,7,22.3,7c-0.3-0.1-0.5-0.1-0.6-0.1c-0.3,0-0.6,0.1-0.9,0.2c-0.3,0.2-0.7,0.4-1,0.6
	c-0.1,0.1-0.3,0.2-0.5,0.2c-0.2,0-0.4,0.1-0.6,0.3c-0.2,0.1-0.4,0.2-0.6,0.4c-0.2,0.1-0.4,0.3-0.6,0.4c0.9-0.1,1.5-0.3,1.9-0.5
	c0.4-0.2,0.8-0.4,1-0.6c0.3-0.2,0.6-0.3,0.9-0.5c0.3-0.1,0.8-0.2,1.4-0.2c0.1,0,0.1,0,0.2,0s0.2,0,0.2,0.1v0.1c-0.3,0-0.6,0.1-1,0.1
	c-0.4,0.1-0.7,0.2-1,0.3c-0.4,0.2-0.7,0.4-1.1,0.6c-0.3,0.2-0.7,0.5-1,0.7C19.3,9.2,19.5,9.2,19.7,9.2z M19.2,6.1H19v0.2h0.2V6.1z
	 M21.6,9.2c0.3,0,0.5-0.1,0.8-0.2c-0.1-0.1-0.2-0.1-0.4-0.1c-0.1,0-0.2,0-0.5,0.1c-0.2,0.1-0.4,0.2-0.6,0.3
	C21.1,9.3,21.3,9.2,21.6,9.2z M22.2,9.5c0.3-0.1,0.7-0.3,1-0.5c-0.3,0.1-0.6,0.2-0.8,0.2c-0.3,0.1-0.6,0.2-0.9,0.3
	c0,0-0.1,0.1-0.1,0.2c-0.1,0.1-0.1,0.2-0.1,0.3C21.6,9.8,21.9,9.7,22.2,9.5z"/>
</svg>
