<?xml version="1.0" encoding="utf-8"?>
<!-- Generator: Adobe Illustrator 18.1.1, SVG Export Plug-In . SVG Version: 6.00 Build 0)  -->
<svg version="1.1" id="Layer_1" xmlns="http://www.w3.org/2000/svg" xmlns:xlink="http://www.w3.org/1999/xlink" x="0px" y="0px"
	 viewBox="0 38.5 100 22.9" enable-background="new 0 38.5 100 22.9" xml:space="preserve">
<g>
	<path fill="#E64733" d="M12.3,38.5c0.4,0.1,0.9,0.1,1.3,0.2c4.7,0.9,8.3,4.6,9.1,9.3c1,5.9-2.6,11.5-8.3,13.1
		c-0.6,0.2-1.2,0.3-1.9,0.3c-0.1,0-0.1,0-0.1,0.1c-0.1,0-0.1,0-0.2,0c-0.1-0.1-0.3,0-0.4,0c-1.8,0-3.6,0-5.5,0
		c-0.1,0-0.1-0.1-0.1-0.2c0-0.1,0-0.2,0-0.3c0-3.6,0-7.2,0-10.9c0-2.7,2-4.9,4.6-5.3c2.9-0.4,5.6,1.7,6,4.5c0.4,2.9-1.5,5.5-4.4,6
		c-1,0.2-1.9,0.1-2.8-0.3c-0.3-0.1-0.4-0.1-0.4,0.2c0,0.9,0,1.9,0,2.8c0,0.3,0.1,0.4,0.3,0.4c3.1,0.7,5.7,0,8-2.2
		c1.5-1.4,2.4-3.2,2.6-5.3c0.2-2.3-0.3-4.5-1.8-6.3c-1.5-1.9-3.4-3-5.8-3.2c-2.8-0.3-5.1,0.5-7.1,2.4c-1.6,1.5-2.4,3.4-2.6,5.6
		c0,0.1,0,0.1,0,0.2c0,0.2,0,0.3,0,0.5c0,3.6,0,7.2,0,10.8c0,0.5,0,0.5-0.5,0.5c-0.6,0-1.3,0-1.9,0c-0.1,0-0.2,0-0.3,0
		c0-4,0-8.1,0-12.1c0-0.1,0-0.1,0-0.2c0-0.1,0-0.2,0-0.2c0.1-1,0.3-1.9,0.6-2.9c0.5-1.3,1.2-2.5,2.2-3.6c1-1.1,2.2-2,3.6-2.7
		c1-0.5,2.1-0.9,3.3-1c0.3,0,0.6,0,0.8-0.1c0,0,0.1,0,0.1,0c0.1,0.1,0.3,0,0.4,0c0.3,0,0.5,0,0.8,0C12,38.5,12.1,38.6,12.3,38.5
		C12.2,38.5,12.3,38.5,12.3,38.5z"/>
	<path fill="#222C31" d="M100,54.7c-0.6,0-1.1,0-1.7,0c-0.2,0-0.2-0.1-0.2-0.3c0-1.7,0-3.5,0-5.2c0-0.5,0-1,0-1.5
		c-0.2-1.4-1.2-2.4-2.6-2.6c-1.2-0.2-2.6,0.6-3.2,1.8c-0.2,0.4-0.3,0.9-0.3,1.3c0,2,0,4.1,0,6.1c0,0.3-0.1,0.3-0.3,0.3
		c-0.4,0-0.9,0-1.3,0c-0.2,0-0.2,0-0.2-0.2c0-3.5,0-7,0-10.5c0-0.2,0.1-0.2,0.2-0.2c0.5,0,0.9,0,1.4,0c0.2,0,0.3,0.1,0.3,0.3
		c0,0.1,0,0.2,0,0.4c0.7-0.6,1.4-0.9,2.2-1.1c2.6-0.5,5.2,1.3,5.7,3.9c0,0.1,0,0.3,0.1,0.4c0,0.1,0,0.3,0,0.4c-0.1,0.3,0,0.6,0,0.9
		c0,0.4,0,0.7,0,1.1c0,0.4,0,0.8,0,1.2c0,0.7,0,1.3,0,2c0,0.1,0,0.2,0,0.3C100,54,100,54.3,100,54.7z"/>
	<path fill="#FEFEFE" d="M10.5,38.5c-0.4,0.2-0.8,0.1-1.3,0.2c-4.6,0.9-8.3,4.7-9,9.3c0,0.3,0,0.6-0.2,0.8c0-3.4,0-6.7,0-10.1
		c0-0.2,0-0.2,0.2-0.2C3.6,38.5,7.1,38.5,10.5,38.5z"/>
	<path fill="#F09A82" d="M2.7,49.5c0,0.2,0,0.4,0,0.6c0,3.8,0,7.6,0,11.3c-0.9,0-1.7,0-2.6,0c-0.1,0-0.2,0.1-0.2-0.1
		c0.8,0,1.5,0,2.3,0c0.4,0,0.4,0,0.4-0.4c0-3.6,0-7.3,0-10.9C2.7,49.9,2.6,49.7,2.7,49.5z"/>
	<path fill="#F09A82" d="M6.2,61.4C6.2,61.4,6.2,61.4,6.2,61.4c1.7-0.1,3.5-0.1,5.2-0.1c0.1,0,0.2,0,0.4,0c0,0,0,0,0,0s0,0,0,0
		C9.9,61.4,8.1,61.4,6.2,61.4z"/>
	<path fill="#363F43" d="M100,53.6c-0.1-0.1-0.1-0.2-0.1-0.2c0-0.7,0-1.3,0-2c0,0,0,0,0.1,0C100,52.1,100,52.8,100,53.6z"/>
	<path fill="#4B5357" d="M100,51.3C100,51.3,100,51.3,100,51.3c-0.1-0.4-0.1-0.8-0.1-1.2c0,0,0,0,0.1,0C100,50.5,100,50.9,100,51.3z
		"/>
	<path fill="#596064" d="M100,50.1C100,50.1,100,50.1,100,50.1c-0.1-0.4-0.1-0.8-0.1-1.1c0,0,0,0,0.1,0C100,49.4,100,49.8,100,50.1z
		"/>
	<path fill="#666D71" d="M100,49C100,49,100,49,100,49c0-0.3-0.1-0.6,0-0.9C100,48.4,100,48.7,100,49z"/>
	<path fill="#F2A48F" d="M11.9,38.6c-0.3,0-0.6,0-0.9,0c0,0,0,0,0,0s0,0,0,0C11.3,38.5,11.6,38.5,11.9,38.6
		C11.9,38.5,11.9,38.5,11.9,38.6C11.9,38.6,11.9,38.6,11.9,38.6z"/>
	<path fill="#F6C2B4" d="M11,38.5C11,38.5,11,38.6,11,38.5c-0.1,0-0.3,0.1-0.4,0C10.7,38.5,10.8,38.5,11,38.5z"/>
	<path fill="#F5BBAB" d="M11.9,38.6C11.9,38.6,11.9,38.5,11.9,38.6c0.1,0,0.2,0,0.4,0C12.1,38.6,12,38.6,11.9,38.6z"/>
	<path fill="#F5BBAB" d="M11.8,61.4C11.8,61.4,11.8,61.4,11.8,61.4c0.1,0,0.3-0.1,0.4,0C12,61.4,11.9,61.4,11.8,61.4z"/>
	<path fill="#F19D86" d="M0,49.1c0.1,0.1,0.1,0.1,0,0.2C0,49.2,0,49.1,0,49.1z"/>
	<path fill="#222C31" d="M28.7,53.5c0,0.7,0,1.4,0,2.1c0,1,0,2,0,3.1c0,0.2-0.1,0.3-0.3,0.3c-0.5,0-0.9,0-1.4,0
		c-0.2,0-0.2-0.1-0.2-0.2c0-3.3,0-6.5,0-9.8c0-2.7,2.3-5.2,5-5.6c3.3-0.4,6.2,1.6,6.8,4.8c0.7,3.3-1.7,6.6-5,7
		c-1.9,0.2-3.5-0.4-4.9-1.6C28.8,53.5,28.8,53.5,28.7,53.5C28.7,53.5,28.7,53.5,28.7,53.5z"/>
	<path fill="#222C31" d="M75.5,48.7c0.1,0,0.3,0,0.4,0c0.6,0,0.6,0,0.6,0.5c0,3-2.3,5.7-5.2,6c-3.3,0.4-6.1-1.9-6.6-4.8
		c-0.6-3.4,1.6-6.6,5-7.1c1.9-0.3,3.6,0.3,5,1.6c0.2,0.2,0.2,0.3,0,0.4c-2.4,2-4.8,4.1-7.3,6.1c-0.2,0.2-0.2,0.3,0,0.5
		c1.2,1.3,3.1,1.8,4.7,1.1c1.6-0.7,2.7-2.3,2.6-4.1c0-0.4-0.1-0.4,0.4-0.4C75.1,48.7,75.3,48.7,75.5,48.7z"/>
	<path fill="#222C31" d="M49.6,53.6c-0.9,0.9-2,1.4-3.2,1.6c-3.2,0.6-6.4-1.8-6.9-5c-0.4-3.2,1.5-6.1,4.6-6.8
		c3.4-0.8,6.8,1.6,7.2,5.1c0.1,0.6,0,1.3,0,1.9c0,1.3,0,2.6,0,4c0,0.3-0.1,0.3-0.3,0.3c-0.4,0-0.9,0-1.3,0c-0.2,0-0.2-0.1-0.2-0.2
		C49.6,54.2,49.6,53.9,49.6,53.6z"/>
	<path fill="#222C31" d="M83.1,55.2c-3.3,0-6-2.7-6-6c0-3.3,2.7-6,6-6c3.3,0,6,2.7,6,6C89.1,52.6,86.4,55.3,83.1,55.2z"/>
	<path fill="#222C31" d="M54.9,50.2c0,1.4,0,2.8,0,4.2c0,0.3-0.1,0.3-0.3,0.3c-0.4,0-0.8,0-1.2,0c-0.2,0-0.3-0.1-0.3-0.3
		c0-2.8,0-5.6,0-8.5c0-0.3-0.1-0.4-0.4-0.4c-0.7,0-0.7,0-0.7-0.7c0-0.3,0-0.6,0-0.8c0-0.2,0.1-0.3,0.3-0.3h0c0.3,0,0.5,0.1,0.7-0.1
		c0.1-0.2,0.1-0.4,0.1-0.7c0-1.1,0-2.1,0-3.2c0-0.2,0-0.3,0.3-0.3c0.4,0,0.8,0,1.2,0c0.2,0,0.3,0.1,0.3,0.3c0,1.2,0,2.4,0,3.6
		c0,0.2,0.1,0.3,0.3,0.3c0.7,0,1.5,0,2.2,0c0.2,0,0.2,0,0.2,0.2c0,0.5,0,0.9,0,1.4c0,0.2,0,0.2-0.2,0.2c-0.8,0-1.5,0-2.3,0
		c-0.2,0-0.3,0.1-0.3,0.3C54.9,47.3,54.9,48.8,54.9,50.2z"/>
	<path fill="#222C31" d="M60.4,45.4c0.1-0.1,0.2-0.2,0.3-0.3c1.1-0.9,2.3-1.4,3.8-1.4c0.2,0,0.3,0,0.3,0.2c0,0.4,0,0.9,0,1.3
		c0,0.2-0.1,0.3-0.3,0.3c-1.8,0-3.4,1.2-3.9,3c-0.1,0.4-0.2,0.9-0.2,1.3c0,1.5,0,3.1,0,4.6c0,0.2-0.1,0.3-0.3,0.3
		c-0.4,0-0.9,0-1.3,0c-0.2,0-0.3-0.1-0.3-0.3c0-1.8,0-3.5,0-5.3c0-1.7,0-3.4,0-5.1c0-0.2,0-0.3,0.3-0.3c0.4,0,0.8,0,1.2,0
		c0.2,0,0.3,0.1,0.3,0.3C60.4,44.5,60.4,44.9,60.4,45.4z"/>
	<path fill="#FEFEFE" d="M32.8,45.1c2.3,0,4.1,1.9,4.1,4.2c0,2.3-1.9,4.2-4.2,4.1c-2.3,0-4.1-1.9-4.1-4.2
		C28.7,47,30.5,45.1,32.8,45.1z"/>
	<path fill="#FEFEFE" d="M66.3,49.9c-0.2-1.5,0.2-2.8,1.3-3.7c1.2-1.1,2.6-1.4,4.2-0.9C70,46.9,68.2,48.4,66.3,49.9z"/>
	<path fill="#FEFEFE" d="M41.3,49.2c0-2.3,1.9-4.2,4.2-4.2c2.3,0,4.2,1.9,4.2,4.2c0,2.2-1.9,4.1-4.2,4.1
		C43.1,53.4,41.3,51.5,41.3,49.2z"/>
	<path fill="#FEFEFE" d="M83.1,53.4c-2.3,0-4.2-1.9-4.2-4.2s1.9-4.2,4.2-4.2s4.2,1.9,4.1,4.2C87.3,51.5,85.4,53.4,83.1,53.4z"/>
</g>
</svg>
